<?xml version="1.0" encoding="utf-8"?>
<!-- Generator: Adobe Illustrator 16.0.0, SVG Export Plug-In . SVG Version: 6.00 Build 0)  -->
<!DOCTYPE svg PUBLIC "-//W3C//DTD SVG 1.1//EN" "http://www.w3.org/Graphics/SVG/1.1/DTD/svg11.dtd">
<svg version="1.1" id="Capa_1" xmlns="http://www.w3.org/2000/svg" xmlns:xlink="http://www.w3.org/1999/xlink" x="0px" y="0px"
	 width="124px" height="104px" viewBox="0 0 124 104" enable-background="new 0 0 124 104" xml:space="preserve">
<g>
	<g id="_x31_86_50_">
		<g>
			<path d="M40.633,43.327c0,0-0.146-1.615-0.219-2.425c0.382-0.219,0.747-0.457,1.089-0.722c0.607,0.349,1.818,1.05,1.818,1.05
				l2.065-0.542l2.342-4.048l-0.542-2.065c0,0-1.56-0.905-2.339-1.353c-0.021-0.449-0.07-0.896-0.161-1.324
				c0.619-0.533,1.853-1.587,1.853-1.587v-2.135l-3.047-3.552h-2.134c0,0-1.013,0.866-1.518,1.301
				c-0.549-0.265-1.129-0.484-1.734-0.649c-0.049-0.601-0.146-1.804-0.146-1.804l-1.509-1.508l-4.662,0.377l-1.509,1.508
				c0,0,0.128,1.585,0.191,2.376c-0.456,0.258-0.887,0.552-1.29,0.88c-0.654-0.303-1.969-0.901-1.969-0.901l-2.064,0.54
				l-1.953,4.255l-0.067,0.291l0.612,1.773c0,0,1.522,0.696,2.286,1.045c0.033,0.502,0.109,0.989,0.235,1.466
				c-0.582,0.489-1.743,1.478-1.743,1.478v2.132l3.023,3.571c0,0,1.758,0.209,1.853,0.156c0.096-0.051,0.284-0.156,0.284-0.156
				s1.105-0.936,1.657-1.406c0.465,0.209,0.952,0.384,1.457,0.521c0.056,0.628,0.172,1.883,0.172,1.883l1.508,1.509l4.656-0.426
				L40.633,43.327z M35.175,38.317c-2.598,0-4.705-2.106-4.705-4.705c0-2.6,2.107-4.707,4.705-4.707
				c2.603,0,4.709,2.106,4.709,4.707C39.884,36.208,37.777,38.317,35.175,38.317z"/>
			<path d="M53.571,58.632c0,0-0.112-1.222-0.166-1.837c0.289-0.162,0.566-0.342,0.824-0.542c0.458,0.261,1.374,0.794,1.374,0.794
				l1.562-0.41l1.771-3.061l-0.41-1.56c0,0-1.178-0.684-1.769-1.021c-0.014-0.34-0.051-0.678-0.121-1.001
				c0.468-0.4,1.401-1.201,1.401-1.201v-1.613l-2.305-2.686h-1.615c0,0-0.766,0.654-1.147,0.982c-0.415-0.2-0.854-0.365-1.311-0.491
				c-0.037-0.454-0.109-1.364-0.109-1.364l-1.141-1.141l-3.524,0.286l-1.141,1.141c0,0,0.098,1.199,0.145,1.795
				c-0.345,0.195-0.673,0.419-0.976,0.666c-0.493-0.228-1.487-0.68-1.487-0.68l-1.562,0.41l-1.476,3.217l-0.051,0.219l0.463,1.341
				c0,0,1.152,0.526,1.728,0.789c0.025,0.382,0.083,0.745,0.179,1.111c-0.44,0.369-1.317,1.114-1.317,1.114v1.613l2.286,2.7
				c0,0,1.329,0.158,1.401,0.119c0.072-0.04,0.214-0.119,0.214-0.119s0.835-0.71,1.252-1.062c0.352,0.156,0.719,0.291,1.104,0.394
				c0.044,0.475,0.13,1.422,0.13,1.422l1.141,1.141l3.52-0.323L53.571,58.632z M49.444,54.845c-1.964,0-3.557-1.597-3.557-3.56
				c0-1.964,1.592-3.557,3.557-3.557c1.967,0,3.562,1.595,3.562,3.557C53.005,53.248,51.411,54.845,49.444,54.845z"/>
			<path fill="#FACC0C" d="M86.009,14.258c-14.94,0-29.877,0-44.817,0c-3.752,0-3.752,5.819,0,5.819c14.94,0,29.876,0,44.817,0
				C89.761,20.077,89.761,14.258,86.009,14.258z"/>
			<path fill="#FACC0C" d="M86.009,28.031c-14.94,0-6.602,0-21.542,0c-3.75,0-3.75,5.82,0,5.82c14.94,0,6.602,0,21.542,0
				C89.761,33.851,89.761,28.031,86.009,28.031z"/>
			<polygon points="26.755,6.983 94.389,6.983 94.389,43.918 101.372,43.918 101.372,0 19.772,0 19.772,22.775 26.755,22.775 			"/>
			<path d="M89.074,83.318c-0.01-0.743-0.067-1.483-0.195-2.195c1.045-0.841,3.143-2.52,3.143-2.52l0.113-3.517l-4.832-6.02
				l-3.523-0.114c0,0-1.714,1.378-2.57,2.064c-0.892-0.465-1.837-0.859-2.824-1.164c-0.049-0.994-0.148-2.984-0.148-2.984
				l-2.409-2.564l-7.702,0.375l-2.57,2.406c0,0,0.128,2.619,0.186,3.928c-0.764,0.402-1.492,0.865-2.172,1.38
				c-1.063-0.53-3.198-1.59-3.198-1.59l-3.434,0.784l-3.443,6.914l-0.128,0.473l0.913,2.958c0,0,2.475,1.225,3.713,1.841
				c0.028,0.832,0.13,1.642,0.31,2.428c-0.985,0.778-2.954,2.35-2.954,2.35l-0.114,3.512l4.795,6.049c0,0,2.887,0.438,3.045,0.355
				s0.475-0.242,0.475-0.242s1.874-1.484,2.81-2.228c0.754,0.372,1.546,0.687,2.375,0.937c0.058,1.037,0.182,3.113,0.182,3.113
				l2.408,2.566l7.693-0.452l2.57-2.402c0,0-0.154-2.675-0.232-4.013c0.635-0.34,1.254-0.717,1.836-1.134
				c0.979,0.61,2.942,1.829,2.942,1.829l3.434-0.787l4.078-6.547l-0.786-3.437C92.861,85.669,90.338,84.1,89.074,83.318z
				 M72.861,91.199c-4.283-0.137-7.646-3.722-7.507-8.002c0.138-4.293,3.724-7.649,8.005-7.515c4.288,0.14,7.646,3.722,7.512,8.013
				C80.731,87.98,77.148,91.337,72.861,91.199z"/>
			<path d="M103.381,66.9c0,0-2.715-1.688-4.074-2.528c-0.009-0.801-0.066-1.593-0.209-2.358c1.127-0.905,3.383-2.711,3.383-2.711
				l0.123-3.783l-5.201-6.476l-3.787-0.124c0,0-1.846,1.478-2.765,2.223c-0.96-0.505-1.974-0.929-3.042-1.255
				c-0.049-1.071-0.154-3.21-0.154-3.21l-2.586-2.763l-8.291,0.405l-2.762,2.588c0,0,0.138,2.814,0.201,4.22
				c-0.824,0.435-1.604,0.929-2.333,1.49c-1.146-0.573-3.445-1.708-3.445-1.708l-3.687,0.845l-3.708,7.43l-0.14,0.512l0.984,3.18
				c0,0,1.737,0.861,3.108,1.541l1.536-1.44l0.628-0.584l0.855-0.042l6.182-0.301c1.082-3.505,4.369-6.015,8.211-5.889
				c4.613,0.146,8.229,4.002,8.079,8.613c-0.037,1.24-0.363,2.399-0.882,3.442l4.341,5.409l0.54,0.673l-0.027,0.861l-0.072,2.229
				c0.9,0.56,1.764,1.098,1.764,1.098l3.692-0.846l4.383-7.041L103.381,66.9z"/>
			<path fill="#FACC0C" d="M23.797,58.635c0.684,0,1.25-0.188,1.699-0.555c0.449-0.365,0.789-0.887,1.015-1.56
				c0.226-0.677,0.34-1.564,0.34-2.665c0-0.927-0.072-1.667-0.209-2.209c-0.142-0.551-0.337-1.015-0.582-1.399
				c-0.251-0.379-0.563-0.673-0.94-0.873c-0.379-0.2-0.819-0.302-1.322-0.302c-0.682,0-1.248,0.182-1.697,0.549
				c-0.449,0.365-0.789,0.884-1.02,1.56c-0.223,0.68-0.34,1.566-0.34,2.675c0,1.76,0.307,3.028,0.922,3.811
				C22.181,58.311,22.891,58.635,23.797,58.635z M22.519,50.694c0.314-0.447,0.738-0.673,1.267-0.673
				c0.535,0,0.982,0.253,1.345,0.759c0.358,0.507,0.54,1.532,0.54,3.073c0,1.533-0.182,2.555-0.54,3.063
				c-0.361,0.515-0.805,0.769-1.332,0.769c-0.528,0-0.973-0.254-1.331-0.764c-0.361-0.51-0.54-1.532-0.54-3.067
				C21.923,52.321,22.121,51.265,22.519,50.694z"/>
			<path fill="#FACC0C" d="M30.584,50.324c-0.482,0.431-1.045,0.796-1.688,1.101v1.11c0.358-0.13,0.763-0.328,1.212-0.591
				c0.449-0.263,0.81-0.531,1.087-0.792v7.326h1.15v-9.404h-0.743C31.406,49.479,31.066,49.894,30.584,50.324z"/>
			<path fill="#FACC0C" d="M26.278,64.217c-0.25-0.38-0.559-0.674-0.94-0.873c-0.38-0.201-0.82-0.303-1.322-0.303
				c-0.68,0-1.248,0.182-1.697,0.549c-0.449,0.363-0.784,0.883-1.015,1.56c-0.226,0.673-0.342,1.567-0.342,2.67
				c0,1.76,0.31,3.03,0.926,3.809c0.515,0.647,1.222,0.973,2.128,0.973c0.684,0,1.252-0.187,1.704-0.554
				c0.445-0.368,0.785-0.892,1.013-1.564c0.226-0.673,0.34-1.56,0.34-2.663c0-0.924-0.07-1.667-0.209-2.212
				C26.718,65.059,26.522,64.598,26.278,64.217z M25.347,70.888c-0.361,0.512-0.803,0.769-1.332,0.769s-0.971-0.257-1.332-0.767
				c-0.361-0.507-0.536-1.531-0.536-3.067c0-1.534,0.193-2.589,0.589-3.162c0.314-0.443,0.738-0.672,1.267-0.672
				c0.538,0,0.984,0.254,1.345,0.759c0.361,0.51,0.54,1.531,0.54,3.072C25.887,69.358,25.708,70.378,25.347,70.888z"/>
			<path fill="#FACC0C" d="M32.568,72.442v-9.404h-0.743c-0.198,0.405-0.54,0.821-1.02,1.253c-0.479,0.43-1.043,0.796-1.686,1.101
				v1.11c0.356-0.131,0.761-0.328,1.21-0.592c0.449-0.263,0.813-0.53,1.087-0.791v7.326L32.568,72.442L32.568,72.442z"/>
			<path fill="#FACC0C" d="M38.871,72.442v-9.404h-0.74c-0.198,0.405-0.54,0.821-1.02,1.253c-0.479,0.43-1.042,0.796-1.685,1.101
				v1.11c0.354-0.131,0.761-0.328,1.21-0.592c0.449-0.263,0.814-0.53,1.087-0.791v7.326L38.871,72.442L38.871,72.442z"/>
			<path fill="#FACC0C" d="M47.132,64.217c-0.249-0.38-0.559-0.674-0.94-0.873c-0.38-0.201-0.82-0.303-1.32-0.303
				c-0.682,0-1.25,0.182-1.699,0.549c-0.449,0.363-0.784,0.883-1.015,1.56c-0.226,0.678-0.34,1.567-0.34,2.673
				c0,1.76,0.307,3.027,0.924,3.811c0.515,0.645,1.225,0.968,2.13,0.968c0.682,0,1.25-0.187,1.7-0.554
				c0.449-0.365,0.784-0.887,1.012-1.56c0.226-0.678,0.342-1.564,0.342-2.665c0-0.927-0.072-1.667-0.214-2.209
				C47.575,65.059,47.382,64.598,47.132,64.217z M46.202,70.888c-0.361,0.512-0.803,0.769-1.33,0.769
				c-0.53,0-0.973-0.257-1.336-0.767c-0.361-0.507-0.535-1.531-0.535-3.067c0-1.534,0.198-2.589,0.589-3.162
				c0.319-0.443,0.738-0.672,1.266-0.672c0.538,0,0.985,0.254,1.346,0.759c0.361,0.51,0.54,1.531,0.54,3.072
				C46.744,69.358,46.564,70.378,46.202,70.888z"/>
			<path fill="#FACC0C" d="M26.278,79.917c-0.25-0.382-0.559-0.673-0.94-0.876c-0.38-0.199-0.82-0.302-1.322-0.302
				c-0.68,0-1.248,0.181-1.697,0.55c-0.449,0.362-0.784,0.887-1.015,1.559c-0.226,0.678-0.342,1.564-0.342,2.673
				c0,1.762,0.31,3.03,0.926,3.808c0.515,0.647,1.222,0.976,2.128,0.976c0.684,0,1.252-0.187,1.704-0.554
				c0.445-0.368,0.785-0.892,1.013-1.564c0.226-0.673,0.34-1.564,0.34-2.665c0-0.922-0.07-1.667-0.209-2.212
				C26.718,80.762,26.522,80.299,26.278,79.917z M25.347,86.591c-0.361,0.51-0.803,0.763-1.332,0.763s-0.971-0.251-1.332-0.763
				c-0.361-0.51-0.536-1.529-0.536-3.068c0-1.534,0.193-2.586,0.589-3.159c0.314-0.443,0.738-0.672,1.267-0.672
				c0.538,0,0.984,0.254,1.345,0.759c0.361,0.51,0.54,1.531,0.54,3.072C25.887,85.057,25.708,86.078,25.347,86.591z"/>
			<path fill="#FACC0C" d="M33.555,79.917c-0.251-0.382-0.563-0.673-0.94-0.876c-0.379-0.199-0.819-0.302-1.322-0.302
				c-0.68,0-1.248,0.181-1.697,0.55c-0.449,0.362-0.789,0.887-1.02,1.559c-0.226,0.678-0.34,1.564-0.34,2.67
				c0,1.763,0.307,3.031,0.922,3.809c0.517,0.646,1.224,0.973,2.13,0.973c0.684,0,1.252-0.182,1.699-0.554
				c0.449-0.365,0.789-0.887,1.015-1.563c0.226-0.674,0.34-1.561,0.34-2.664c0-0.924-0.072-1.666-0.209-2.211
				C33.995,80.762,33.799,80.299,33.555,79.917z M32.624,86.591c-0.361,0.51-0.803,0.763-1.332,0.763s-0.973-0.251-1.332-0.763
				c-0.361-0.51-0.54-1.529-0.54-3.068c0-1.534,0.198-2.586,0.594-3.159c0.314-0.443,0.738-0.672,1.266-0.672
				c0.538,0,0.985,0.254,1.346,0.759c0.358,0.51,0.54,1.531,0.54,3.072C33.164,85.057,32.982,86.078,32.624,86.591z"/>
			<path fill="#FACC0C" d="M40.827,79.917c-0.247-0.382-0.559-0.673-0.936-0.876c-0.384-0.199-0.824-0.302-1.322-0.302
				c-0.68,0-1.248,0.181-1.697,0.55c-0.452,0.362-0.789,0.887-1.02,1.559c-0.226,0.678-0.34,1.564-0.34,2.67
				c0,1.763,0.308,3.031,0.922,3.809c0.517,0.646,1.225,0.973,2.13,0.973c0.682,0,1.252-0.182,1.699-0.554
				c0.449-0.365,0.785-0.887,1.013-1.563c0.226-0.674,0.342-1.561,0.342-2.664c0-0.924-0.072-1.666-0.214-2.211
				C41.271,80.762,41.076,80.299,40.827,79.917z M39.898,86.591c-0.358,0.51-0.806,0.763-1.329,0.763
				c-0.531,0-0.973-0.251-1.334-0.763c-0.361-0.51-0.538-1.529-0.538-3.068c0-1.534,0.198-2.586,0.591-3.159
				c0.316-0.443,0.74-0.672,1.266-0.672c0.536,0,0.985,0.254,1.346,0.759c0.36,0.51,0.542,1.531,0.542,3.072
				C40.44,85.057,40.259,86.078,39.898,86.591z"/>
			<path fill="#FACC0C" d="M47.123,88.141v-9.401h-0.74c-0.2,0.405-0.542,0.821-1.024,1.25c-0.482,0.433-1.043,0.798-1.686,1.103
				v1.113c0.358-0.135,0.761-0.333,1.21-0.596c0.449-0.264,0.815-0.531,1.087-0.791v7.327h1.152V88.141z"/>
			<path fill="#FACC0C" d="M53.332,95.233c-0.482,0.431-1.045,0.796-1.688,1.101v1.111c0.359-0.133,0.764-0.328,1.213-0.592
				c0.449-0.26,0.81-0.528,1.087-0.791v7.325h1.15v-9.406h-0.743C54.151,94.387,53.811,94.803,53.332,95.233z"/>
			<path fill="#FACC0C" d="M26.278,95.615c-0.25-0.379-0.559-0.67-0.94-0.873c-0.38-0.205-0.82-0.305-1.322-0.305
				c-0.68,0-1.248,0.182-1.697,0.547s-0.784,0.889-1.015,1.563c-0.226,0.677-0.342,1.568-0.342,2.674c0,1.76,0.31,3.026,0.926,3.809
				c0.515,0.643,1.222,0.969,2.128,0.969c0.684,0,1.252-0.182,1.704-0.55c0.445-0.368,0.785-0.894,1.013-1.569
				c0.226-0.672,0.34-1.562,0.34-2.658c0-0.928-0.07-1.671-0.209-2.213C26.718,96.461,26.522,95.997,26.278,95.615z M25.347,102.289
				c-0.361,0.512-0.803,0.768-1.332,0.768s-0.971-0.256-1.332-0.768c-0.361-0.51-0.536-1.527-0.536-3.063
				c0-1.538,0.193-2.591,0.589-3.163c0.314-0.445,0.738-0.668,1.267-0.668c0.538,0,0.984,0.249,1.345,0.759
				c0.361,0.505,0.54,1.529,0.54,3.072C25.887,100.758,25.708,101.779,25.347,102.289z"/>
			<path fill="#FACC0C" d="M30.806,95.688c-0.482,0.434-1.043,0.796-1.686,1.104v1.11c0.356-0.133,0.761-0.328,1.21-0.591
				c0.449-0.262,0.813-0.531,1.087-0.792v7.325h1.15v-9.406h-0.743C31.627,94.845,31.285,95.26,30.806,95.688z"/>
			<path fill="#FACC0C" d="M37.111,95.688c-0.481,0.434-1.042,0.796-1.685,1.104v1.11c0.354-0.133,0.761-0.328,1.21-0.591
				c0.449-0.262,0.814-0.531,1.087-0.792v7.325h1.15v-9.406h-0.74C37.933,94.845,37.591,95.26,37.111,95.688z"/>
			<path fill="#FACC0C" d="M47.132,95.615c-0.249-0.379-0.559-0.67-0.94-0.873c-0.38-0.205-0.82-0.305-1.32-0.305
				c-0.682,0-1.25,0.182-1.699,0.547s-0.784,0.889-1.015,1.563c-0.226,0.677-0.34,1.568-0.34,2.674c0,1.76,0.307,3.026,0.924,3.809
				c0.515,0.643,1.225,0.969,2.13,0.969c0.682,0,1.25-0.182,1.7-0.55c0.449-0.368,0.784-0.894,1.012-1.569
				c0.226-0.672,0.342-1.562,0.342-2.658c0-0.928-0.072-1.671-0.214-2.213C47.575,96.461,47.382,95.997,47.132,95.615z
				 M46.202,102.289c-0.361,0.512-0.803,0.768-1.33,0.768c-0.53,0-0.973-0.256-1.336-0.768c-0.361-0.51-0.535-1.527-0.535-3.063
				c0-1.538,0.198-2.591,0.589-3.163c0.319-0.445,0.738-0.668,1.266-0.668c0.538,0,0.985,0.249,1.346,0.759
				c0.361,0.505,0.54,1.529,0.54,3.072C46.744,100.758,46.564,101.779,46.202,102.289z"/>
		</g>
	</g>
</g>
</svg>
