<?xml version="1.0" encoding="utf-8"?>
<!-- Generator: Adobe Illustrator 16.0.0, SVG Export Plug-In . SVG Version: 6.00 Build 0)  -->
<!DOCTYPE svg PUBLIC "-//W3C//DTD SVG 1.1//EN" "http://www.w3.org/Graphics/SVG/1.1/DTD/svg11.dtd">
<svg version="1.1" id="Layer_1" xmlns="http://www.w3.org/2000/svg" xmlns:xlink="http://www.w3.org/1999/xlink" x="0px" y="0px"
	 width="124px" height="104px" viewBox="0 0 858 980" enable-background="new 0 0 858 980" xml:space="preserve">
<g>
	<path fill="#FACC12" d="M92.334,28.333c34.738,0,63,28.262,63,63c0,34.738-28.262,63-63,63c-34.738,0-63-28.262-63-63
		C29.334,56.595,57.596,28.333,92.334,28.333 M92.334,0.333c-50.257,0-91,40.742-91,91c0,50.257,40.742,91,91,91
		c50.258,0,91-40.742,91-91C183.334,41.075,142.592,0.333,92.334,0.333L92.334,0.333z"/>
</g>
<g>
	<path fill="#FACC12" d="M429,28.333c34.738,0,63,28.262,63,63c0,34.738-28.262,63-63,63s-63-28.262-63-63
		C366,56.595,394.262,28.333,429,28.333 M429,0.333c-50.257,0-91,40.742-91,91c0,50.257,40.742,91,91,91c50.258,0,91-40.742,91-91
		C520,41.075,479.258,0.333,429,0.333L429,0.333z"/>
</g>
<g>
	<path fill="#FACC12" d="M767,28.333c34.738,0,63,28.262,63,63c0,34.738-28.262,63-63,63s-63-28.262-63-63
		C704,56.595,732.262,28.333,767,28.333 M767,0.333c-50.258,0-91,40.742-91,91c0,50.257,40.742,91,91,91s91-40.742,91-91
		C858,41.075,817.258,0.333,767,0.333L767,0.333z"/>
</g>
<g>
	<path fill="#FACC12" d="M767,826.001c34.738,0,63,28.262,63,63C830,923.738,801.738,952,767,952s-63-28.262-63-62.999
		C704,854.263,732.262,826.001,767,826.001 M767,798.001c-50.258,0-91,40.742-91,91C676,939.258,716.742,980,767,980
		s91-40.742,91-90.999C858,838.743,817.258,798.001,767,798.001L767,798.001z"/>
</g>
<g>
	<path fill="#FACC12" d="M429,826.001c34.738,0,63,28.262,63,63C492,923.738,463.738,952,429,952s-63-28.262-63-62.999
		C366,854.263,394.262,826.001,429,826.001 M429,798.001c-50.258,0-91,40.742-91,91C338,939.258,378.742,980,429,980
		s91-40.742,91-90.999C520,838.743,479.258,798.001,429,798.001L429,798.001z"/>
</g>
<g>
	<path fill="#FACC12" d="M92.334,826.001c34.738,0,63,28.262,63,63c0,34.737-28.262,62.999-63,62.999s-63-28.262-63-62.999
		C29.334,854.263,57.596,826.001,92.334,826.001 M92.334,798.001c-50.258,0-91,40.742-91,91c0,50.257,40.742,90.999,91,90.999
		s91-40.742,91-90.999C183.334,838.743,142.592,798.001,92.334,798.001L92.334,798.001z"/>
</g>
<g>
	<path fill="#FACC12" d="M615.333,426.333v127.333H242.667V426.333H615.333 M643.333,398.333H214.667v183.333h428.667V398.333
		L643.333,398.333z"/>
</g>
<rect x="352" y="475" fill="#FACC12" width="30.5" height="31"/>
<rect x="414" y="475" fill="#FACC12" width="30.5" height="31"/>
<rect x="474.5" y="474.499" fill="#FACC12" width="30.5" height="31"/>
<path d="M673.75,473h69.5c28.5-7.25,37-35.75,37-35.75l1.25-169.75l34.5,32.75l21.75-21.5L766,208l-71,71l21.75,21.5l34-32.75
	l-1,160.25c2.25,13.5-8.75,16-8.75,16h-67"/>
<path d="M673.279,506.795l69.5,0.031c28.496,7.264,36.983,35.768,36.983,35.768l1.171,169.75l34.516-32.734l21.74,21.51
	l-71.783,70.718l-70.967-71.032l21.76-21.49l33.985,32.766l-0.927-160.251c2.257-13.499-8.742-16.003-8.742-16.003l-67-0.031"/>
<path d="M184.099,473h-69.5c-28.5-7.25-37-35.75-37-35.75l-1.25-169.75l-34.5,32.75l-21.75-21.5L91.849,208l71,71l-21.75,21.5
	l-34-32.75l1,160.25c-2.25,13.5,8.75,16,8.75,16h67"/>
<polyline points="412.985,367.333 412.25,267.5 377.75,300.25 356,278.75 427.75,208 498.75,279 477,300.5 443,267.75 
	443.622,367.334 "/>
<polyline points="412.985,614 412.25,713.834 377.75,681.084 356,702.584 427.75,773.334 498.75,702.334 477,680.834 443,713.584 
	443.622,614 "/>
<path d="M184.569,506.795l-69.5,0.031c-28.496,7.264-36.983,35.768-36.983,35.768l-1.171,169.75l-34.516-32.734l-21.74,21.51
	l71.783,70.718l70.967-71.032l-21.76-21.49l-33.985,32.766l0.927-160.251c-2.257-13.499,8.742-16.003,8.742-16.003l67-0.031"/>
</svg>
