<?xml version="1.0" encoding="utf-8"?>
<!-- Generator: Adobe Illustrator 16.0.0, SVG Export Plug-In . SVG Version: 6.00 Build 0)  -->
<!DOCTYPE svg PUBLIC "-//W3C//DTD SVG 1.1//EN" "http://www.w3.org/Graphics/SVG/1.1/DTD/svg11.dtd">
<svg version="1.1" id="Layer_1" xmlns="http://www.w3.org/2000/svg" xmlns:xlink="http://www.w3.org/1999/xlink" x="0px" y="0px"
	 width="505px" height="243px" viewBox="0 0 505 243" enable-background="new 0 0 505 243" xml:space="preserve">
<g>
	
		<line fill="none" stroke="#231F20" stroke-width="3.2" stroke-linejoin="round" stroke-miterlimit="10" stroke-dasharray="7" x1="354.91" y1="60.606" x2="354.91" y2="122.033"/>
	
		<line fill="none" stroke="#231F20" stroke-width="3.2" stroke-linejoin="round" stroke-miterlimit="10" stroke-dasharray="7" x1="106.125" y1="80.569" x2="106.125" y2="171.945"/>
	<g>
		<g>
			
				<line fill="none" stroke="#231F20" stroke-width="3.2" stroke-linejoin="round" x1="139.91" y1="43.713" x2="142.681" y2="43.713"/>
			
				<line fill="none" stroke="#231F20" stroke-width="3.2" stroke-linejoin="round" stroke-dasharray="7.1162,7.1162" x1="148.314" y1="43.713" x2="337.037" y2="43.713"/>
			
				<line fill="none" stroke="#231F20" stroke-width="3.2" stroke-linejoin="round" x1="339.854" y1="43.713" x2="342.625" y2="43.713"/>
		</g>
	</g>
	<g>
		<g>
			<rect x="484.678" y="119.73" fill="#BDBEC0" width="16.893" height="15.358"/>
			
				<line fill="none" stroke="#231F20" stroke-width="3.2" stroke-linejoin="round" stroke-miterlimit="10" x1="477.767" y1="132.017" x2="452.428" y2="132.017"/>
			
				<line fill="none" stroke="#231F20" stroke-width="3.2" stroke-linejoin="round" stroke-miterlimit="10" x1="477.767" y1="122.802" x2="442.446" y2="122.802"/>
		</g>
		
			<line fill="none" stroke="#231F20" stroke-width="3.2" stroke-linejoin="round" stroke-miterlimit="10" x1="501.203" y1="135.088" x2="484.626" y2="119.339"/>
	</g>
	<g>
		
			<rect x="387.16" y="141.23" fill="#F2F2F2" stroke="#231F20" stroke-width="3.2" stroke-linejoin="round" stroke-miterlimit="10" width="112.106" height="29.179"/>
		
			<rect x="387.16" y="170.409" fill="#D2D3D4" stroke="#231F20" stroke-width="3.2" stroke-linejoin="round" stroke-miterlimit="10" width="112.106" height="29.179"/>
		
			<rect x="387.16" y="199.588" fill="#F2F2F2" stroke="#231F20" stroke-width="3.2" stroke-linejoin="round" stroke-miterlimit="10" width="112.106" height="29.178"/>
		<circle fill="#FFFFFF" cx="477.767" cy="184.229" r="6.526"/>
		<circle fill="#FFFFFF" cx="457.035" cy="184.229" r="6.527"/>
		
			<line fill="none" stroke="#231F20" stroke-width="3.2" stroke-linejoin="round" stroke-miterlimit="10" x1="403.285" y1="209.569" x2="483.91" y2="209.569"/>
		
			<line fill="none" stroke="#231F20" stroke-width="3.2" stroke-linejoin="round" stroke-miterlimit="10" x1="403.285" y1="217.248" x2="483.91" y2="217.248"/>
		
			<line fill="none" stroke="#231F20" stroke-width="3.2" stroke-linejoin="round" stroke-miterlimit="10" x1="403.285" y1="179.623" x2="403.285" y2="188.838"/>
		
			<line fill="none" stroke="#231F20" stroke-width="3.2" stroke-linejoin="round" stroke-miterlimit="10" x1="410.964" y1="179.623" x2="410.964" y2="188.838"/>
		
			<line fill="none" stroke="#231F20" stroke-width="3.2" stroke-linejoin="round" stroke-miterlimit="10" x1="418.642" y1="179.623" x2="418.642" y2="188.838"/>
		
			<line fill="none" stroke="#231F20" stroke-width="3.2" stroke-linejoin="round" stroke-miterlimit="10" x1="426.32" y1="179.623" x2="426.32" y2="188.838"/>
		
			<line fill="none" stroke="#231F20" stroke-width="3.2" stroke-linejoin="round" stroke-miterlimit="10" x1="433.999" y1="179.623" x2="433.999" y2="188.838"/>
		
			<line fill="none" stroke="#231F20" stroke-width="3.2" stroke-linejoin="round" stroke-miterlimit="10" x1="454.731" y1="184.229" x2="459.338" y2="184.229"/>
		
			<line fill="none" stroke="#231F20" stroke-width="3.2" stroke-linejoin="round" stroke-miterlimit="10" x1="475.463" y1="184.229" x2="480.07" y2="184.229"/>
		<rect x="480.07" y="150.444" fill="#A8AAAD" width="3.071" height="9.982"/>
		<rect x="472.392" y="150.444" fill="#619AD2" width="3.071" height="9.982"/>
		<rect x="464.713" y="150.444" fill="#FACC14" width="3.071" height="9.982"/>
		<rect x="457.035" y="150.444" fill="#619AD2" width="3.071" height="9.982"/>
		<rect x="449.356" y="150.444" fill="#FACC14" width="3.071" height="9.982"/>
		
			<line fill="none" stroke="#231F20" stroke-width="3.2" stroke-linejoin="round" stroke-miterlimit="10" x1="397.91" y1="151.213" x2="443.213" y2="151.213"/>
		
			<line fill="none" stroke="#231F20" stroke-width="3.2" stroke-linejoin="round" stroke-miterlimit="10" x1="397.91" y1="158.892" x2="443.213" y2="158.892"/>
	</g>
	<g>
		<polygon fill="none" stroke="#231F20" stroke-width="3.2" stroke-linejoin="round" stroke-miterlimit="10" points="
			403.285,80.569 403.285,55.999 393.303,55.999 393.303,80.569 375.642,80.569 375.642,89.784 420.946,89.784 420.946,80.569 		"/>
		
			<line fill="none" stroke="#231F20" stroke-width="3.2" stroke-linejoin="round" stroke-miterlimit="10" x1="393.303" y1="80.569" x2="397.91" y2="80.569"/>
		
			<line fill="none" stroke="#231F20" stroke-width="3.2" stroke-linejoin="round" stroke-miterlimit="10" x1="420.946" y1="85.177" x2="431.695" y2="85.177"/>
		
			<line fill="none" stroke="#231F20" stroke-width="3.2" stroke-linejoin="round" stroke-miterlimit="10" x1="364.892" y1="85.177" x2="375.642" y2="85.177"/>
	</g>
	<g>
		<path fill="#FFFFFF" d="M180.311,61.003c-6.531,0-12.589,1.981-17.59,5.437c-3.394-3.857-8.056-6.57-13.349-7.452
			c0.219-1.481,0.334-3.003,0.334-4.547c0-17.125-13.881-31.011-31.006-31.011S87.69,37.308,87.69,54.434
			c0,2.526,0.312,4.975,0.881,7.325c-2.293-0.541-4.687-0.755-7.146-0.755c-17.125,0-31.006,13.423-31.006,31.083H211.32
			C211.32,74.427,197.439,61.003,180.311,61.003z"/>
		<path fill="#D2D3D4" stroke="#231F20" stroke-width="3.2" stroke-linejoin="round" stroke-miterlimit="10" d="M50.918,91.929"/>
		<path fill="#D2D3D4" stroke="#231F20" stroke-width="3.2" stroke-linejoin="round" stroke-miterlimit="10" d="M88.571,61.757
			c0,0,3.788,3.038,5.03,3.686"/>
		<path fill="#D2D3D4" stroke="#231F20" stroke-width="3.2" stroke-linejoin="round" stroke-miterlimit="10" d="M162.721,66.399
			c0,0-1.71,2.929-1.785,5.181"/>
	</g>
	<g>
		<rect x="219.767" y="188.838" fill="#D2D3D4" width="43.769" height="29.179"/>
		<g>
			<path fill="#D2D3D4" d="M342.625,63.704c0-6.071-4.512-11.544-10.851-11.544H150.939c-6.34,0-11.796,5.473-11.796,11.544v90.58
				h203.482V63.704z"/>
			<path fill="#F2F2F2" stroke="#231F20" stroke-width="3.2" stroke-linejoin="round" stroke-miterlimit="10" d="M139.143,154.283
				v24.224c0,6.073,5.456,10.331,11.796,10.331h180.835c6.339,0,10.851-4.258,10.851-10.331v-24.224H139.143z"/>
		</g>
		<circle fill="#BDBEC0" cx="241.357" cy="171.653" r="7.095"/>
		
			<rect x="211.32" y="218.017" fill="#F2F2F2" stroke="#231F20" stroke-width="3.2" stroke-linejoin="round" stroke-miterlimit="10" width="59.125" height="7.679"/>
		
			<rect x="152.196" y="64.445" fill="#FACC14" stroke="#231F20" stroke-width="3.2" stroke-linejoin="round" stroke-miterlimit="10" width="178.143" height="89.838"/>
		<g opacity="0.5">
			<rect x="164.481" y="75.962" fill="#FCE586" width="154.34" height="23.804"/>
			<rect x="231.285" y="105.909" fill="#FCE586" width="35.322" height="19.196"/>
			<rect x="165.25" y="105.909" fill="#FCE586" width="56.82" height="19.196"/>
			<rect x="276.589" y="105.909" fill="#F79334" width="41.464" height="19.196"/>
			<rect x="164.481" y="131.249" fill="#FCE586" width="153.572" height="13.905"/>
		</g>
	</g>
	<g>
		<path fill="#D2D3D4" d="M429.392,108.596c0-4.085-3.079-7.294-7.166-7.294H278.128c-4.087,0-7.683,3.208-7.683,7.294v105.58
			h158.946V108.596z"/>
		<path fill="#F2F2F2" stroke="#231F20" stroke-width="3.2" stroke-linejoin="round" stroke-miterlimit="10" d="M258.928,214.176
			v7.31c0,4.081,3.597,7.28,8.299,7.28h165.898c4.704,0,8.553-3.199,8.553-7.28v-7.31H258.928z"/>
		
			<rect x="281.964" y="110.516" fill="#619AD2" stroke="#231F20" stroke-width="3.2" stroke-linejoin="round" stroke-miterlimit="10" width="136.678" height="92.144"/>
		
			<line fill="none" stroke="#231F20" stroke-width="3.2" stroke-linejoin="round" stroke-miterlimit="10" x1="341.088" y1="221.855" x2="358.75" y2="221.855"/>
		<rect x="395.606" y="118.962" opacity="0.2" fill="#FFFFFF" width="15.357" height="24.571"/>
		<rect x="291.178" y="118.962" opacity="0.2" fill="#FFFFFF" width="99.821" height="24.571"/>
		<rect x="291.178" y="151.213" opacity="0.2" fill="#FFFFFF" width="26.875" height="21.5"/>
		<rect x="323.428" y="151.213" opacity="0.2" fill="#FFFFFF" width="86.769" height="21.5"/>
		<rect x="291.178" y="179.623" opacity="0.2" fill="#FFFFFF" width="119.019" height="12.286"/>
	</g>
	<g>
		
			<rect x="78.482" y="141.999" fill="#F2F2F2" stroke="#231F20" stroke-width="3.2" stroke-linejoin="round" stroke-miterlimit="10" width="112.106" height="29.178"/>
		
			<rect x="78.482" y="171.177" fill="#D2D3D4" stroke="#231F20" stroke-width="3.2" stroke-linejoin="round" stroke-miterlimit="10" width="112.106" height="29.179"/>
		
			<rect x="78.482" y="200.355" fill="#F2F2F2" stroke="#231F20" stroke-width="3.2" stroke-linejoin="round" stroke-miterlimit="10" width="112.106" height="29.179"/>
		<circle fill="#FFFFFF" cx="169.088" cy="184.999" r="6.527"/>
		<circle fill="#FFFFFF" cx="148.356" cy="184.999" r="6.527"/>
		
			<line fill="none" stroke="#231F20" stroke-width="3.2" stroke-linejoin="round" stroke-miterlimit="10" x1="94.606" y1="210.338" x2="175.231" y2="210.338"/>
		
			<line fill="none" stroke="#231F20" stroke-width="3.2" stroke-linejoin="round" stroke-miterlimit="10" x1="94.606" y1="218.017" x2="175.231" y2="218.017"/>
		
			<line fill="none" stroke="#231F20" stroke-width="3.2" stroke-linejoin="round" stroke-miterlimit="10" x1="94.606" y1="180.391" x2="94.606" y2="189.605"/>
		
			<line fill="none" stroke="#231F20" stroke-width="3.2" stroke-linejoin="round" stroke-miterlimit="10" x1="102.285" y1="180.391" x2="102.285" y2="189.605"/>
		
			<line fill="none" stroke="#231F20" stroke-width="3.2" stroke-linejoin="round" stroke-miterlimit="10" x1="109.963" y1="180.391" x2="109.963" y2="189.605"/>
		
			<line fill="none" stroke="#231F20" stroke-width="3.2" stroke-linejoin="round" stroke-miterlimit="10" x1="117.643" y1="180.391" x2="117.643" y2="189.605"/>
		
			<line fill="none" stroke="#231F20" stroke-width="3.2" stroke-linejoin="round" stroke-miterlimit="10" x1="125.321" y1="180.391" x2="125.321" y2="189.605"/>
		
			<line fill="none" stroke="#231F20" stroke-width="3.2" stroke-linejoin="round" stroke-miterlimit="10" x1="146.053" y1="184.999" x2="150.66" y2="184.999"/>
		
			<line fill="none" stroke="#231F20" stroke-width="3.2" stroke-linejoin="round" stroke-miterlimit="10" x1="166.785" y1="184.999" x2="171.393" y2="184.999"/>
		<rect x="171.393" y="151.213" fill="#A8AAAD" width="3.071" height="9.982"/>
		<rect x="163.713" y="151.213" fill="#409AD4" width="3.072" height="9.982"/>
		<rect x="156.035" y="151.213" fill="#FAA436" width="3.071" height="9.982"/>
		<rect x="148.356" y="151.213" fill="#409AD4" width="3.072" height="9.982"/>
		<rect x="140.678" y="151.213" fill="#FAA436" width="3.071" height="9.982"/>
		
			<line fill="none" stroke="#231F20" stroke-width="3.2" stroke-linejoin="round" stroke-miterlimit="10" x1="89.231" y1="151.98" x2="134.535" y2="151.98"/>
		
			<line fill="none" stroke="#231F20" stroke-width="3.2" stroke-linejoin="round" stroke-miterlimit="10" x1="89.231" y1="159.659" x2="134.535" y2="159.659"/>
	</g>
	<g>
		<path fill="#FACC14" d="M51.653,191.692c-8.185,0-14.821,6.636-14.821,14.821c0,4.464,1.976,8.464,5.098,11.181
			c1.718-1.713,4.505-3.013,5.829-3.6c1.236-0.55,1.63-1.525,1.741-2.186c-1.469-1.041-2.5-2.757-2.5-4.095v-6.241
			c0,0-0.594-5.2,4.607-5.2c5.201,0,4.606,5.2,4.606,5.2v6.241c0,1.338-0.724,3.054-2.194,4.095c0.11,0.66,0.654,1.636,1.889,2.186
			c1.262,0.56,3.933,1.767,5.661,3.362c2.965-2.71,4.866-6.608,4.866-10.943C66.435,198.328,59.838,191.692,51.653,191.692z"/>
		<path fill="none" stroke="#231F20" stroke-width="3.2" stroke-linejoin="round" stroke-miterlimit="10" d="M54.678,211.909
			c0-0.003,0-0.005,0-0.006c0,0.001-0.488,0.003-0.488,0.006c1.47-1.041,2.024-2.757,2.024-4.095v-6.241c0,0,0.594-5.2-4.606-5.2
			c-5.202,0-4.607,5.2-4.607,5.2v6.241c0,1.338,1.03,3.054,2.5,4.095c0-0.003-0.006-0.005-0.004-0.006
			c-0.001,0.001-0.004,0.003-0.004,0.006c-0.112,0.66-0.495,1.636-1.73,2.186c-1.323,0.587-4.112,1.887-5.831,3.6
			c2.603,2.267,6.003,3.643,9.724,3.643c3.854,0,7.361-1.472,9.996-3.88c-1.728-1.596-4.149-2.803-5.411-3.362
			C55.002,213.545,54.678,212.569,54.678,211.909z"/>
	</g>
	<g>
		<path fill="#619AD2" d="M131.142,88.031c-10.089,0-18.27,8.181-18.27,18.27c0,5.501,2.436,10.432,6.285,13.782
			c2.117-2.113,5.553-3.714,7.184-4.438c1.523-0.677,1.966-1.88,2.105-2.693c-1.813-1.283-3.125-3.398-3.125-5.047v-7.693
			c0,0-0.652-6.41,5.758-6.41s5.759,6.41,5.759,6.41v7.693c0,1.648-0.93,3.764-2.742,5.047c0.136,0.813,0.787,2.016,2.309,2.693
			c1.555,0.69,4.838,2.178,6.968,4.145c3.655-3.34,5.993-8.146,5.993-13.488C149.367,96.212,141.232,88.031,131.142,88.031z"/>
		<path fill="none" stroke="#231F20" stroke-width="3.2" stroke-linejoin="round" stroke-miterlimit="10" d="M134.454,112.951
			c0-0.002-0.001-0.006-0.001-0.008c0,0.002-0.355,0.005-0.355,0.008c1.812-1.283,2.742-3.398,2.742-5.047v-7.693
			c0,0,0.651-6.41-5.759-6.41s-5.758,6.41-5.758,6.41v7.693c0,1.648,1.312,3.764,3.125,5.047c0-0.002,0.013-0.006,0.015-0.008
			c-0.001,0.002,0.005,0.005,0.005,0.008c-0.138,0.813-0.605,2.016-2.128,2.693c-1.631,0.724-5.065,2.325-7.184,4.438
			c3.208,2.792,7.399,4.489,11.987,4.489c4.748,0,9.074-1.813,12.322-4.783c-2.13-1.966-5.324-3.455-6.879-4.145
			C135.062,114.967,134.59,113.765,134.454,112.951z"/>
	</g>
	<g>
		<path fill="#FACC14" d="M125.632,16.364c-8.465,0-15.326,6.863-15.326,15.328c0,4.614,2.042,8.751,5.271,11.562
			c1.775-1.773,4.658-3.117,6.027-3.724c1.279-0.568,1.632-1.577,1.747-2.259c-1.52-1.076-2.638-2.851-2.638-4.234v-6.454
			c0,0-0.386-5.377,4.991-5.377c5.378,0,4.991,5.377,4.991,5.377v6.454c0,1.383-0.922,3.158-2.442,4.234
			c0.115,0.682,0.588,1.691,1.865,2.259c1.304,0.579,4.023,1.827,5.811,3.476c3.065-2.801,5.009-6.833,5.009-11.314
			C140.938,23.227,134.096,16.364,125.632,16.364z"/>
		<path fill="none" stroke="#231F20" stroke-width="3.2" stroke-linejoin="round" stroke-miterlimit="10" d="M128.41,37.27
			c0-0.002-0.001-0.005-0.001-0.007c0,0.002-0.155,0.004-0.155,0.007c1.52-1.076,2.442-2.851,2.442-4.234v-6.454
			c0,0,0.387-5.377-4.991-5.377c-5.377,0-4.991,5.377-4.991,5.377v6.454c0,1.383,1.118,3.158,2.638,4.234
			c0-0.002,0.022-0.005,0.022-0.007c0,0.002,0.009,0.004,0.009,0.007c-0.116,0.682-0.506,1.691-1.784,2.259
			c-1.368,0.607-4.248,1.951-6.025,3.724c2.692,2.342,6.208,3.765,10.057,3.765c3.983,0,7.611-1.522,10.336-4.013
			c-1.786-1.649-4.466-2.897-5.771-3.476C128.92,38.961,128.525,37.952,128.41,37.27z"/>
	</g>
	<g>
		
			<rect x="27.035" y="31.427" fill="#FFFFFF" stroke="#231F20" stroke-width="3.2" stroke-linejoin="round" stroke-miterlimit="10" width="55.286" height="43.769"/>
		<rect x="31.643" y="36.034" fill="#619AD2" width="45.303" height="33.786"/>
		<polyline fill="none" stroke="#231F20" stroke-width="3.2" stroke-linejoin="round" stroke-miterlimit="10" points="
			31.405,58.479 50.235,48.698 68.653,59.311 		"/>
		<polyline fill="none" stroke="#231F20" stroke-width="3.2" stroke-linejoin="round" stroke-miterlimit="10" points="
			60.775,54.771 67.612,48.698 76.977,54.771 		"/>
		<circle fill="#FFFFFF" cx="58.353" cy="42.767" r="4.266"/>
	</g>
	<g>
		<polyline fill="none" stroke="#231F20" stroke-width="3.2" stroke-linejoin="round" stroke-miterlimit="10" points="
			38.553,89.784 94.606,89.784 94.606,125.873 		"/>
		<polygon fill="#FACC14" points="90,94.392 30.106,94.392 30.106,133.552 61.589,133.552 61.589,148.142 76.178,133.552 
			90,133.552 		"/>
		<polygon fill="#619AD2" points="22.428,122.802 54.678,122.802 54.678,144.303 38.553,144.303 38.553,151.878 29.905,144.303 
			22.428,144.303 		"/>
		
			<line fill="none" stroke="#231F20" stroke-width="3.2" stroke-linejoin="round" stroke-miterlimit="10" x1="37.786" y1="111.284" x2="83.088" y2="111.284"/>
		
			<line fill="none" stroke="#231F20" stroke-width="3.2" stroke-linejoin="round" stroke-miterlimit="10" x1="37.786" y1="102.837" x2="83.088" y2="102.837"/>
		
			<line fill="none" stroke="#231F20" stroke-width="3.2" stroke-linejoin="round" stroke-miterlimit="10" x1="37.786" y1="118.962" x2="83.088" y2="118.962"/>
		
			<line fill="none" stroke="#231F20" stroke-width="3.2" stroke-linejoin="round" stroke-miterlimit="10" x1="37.786" y1="128.945" x2="49.303" y2="128.945"/>
		
			<line fill="none" stroke="#231F20" stroke-width="3.2" stroke-linejoin="round" stroke-miterlimit="10" x1="54.678" y1="126.641" x2="66.196" y2="126.641"/>
		
			<line fill="none" stroke="#231F20" stroke-width="3.2" stroke-linejoin="round" stroke-miterlimit="10" x1="71.571" y1="126.641" x2="83.088" y2="126.641"/>
		
			<line fill="none" stroke="#231F20" stroke-width="3.2" stroke-linejoin="round" stroke-miterlimit="10" x1="49.303" y1="136.623" x2="27.035" y2="136.623"/>
	</g>
	<g>
		<polyline fill="none" stroke="#231F20" stroke-width="3.2" stroke-linejoin="round" stroke-miterlimit="10" points="
			416.339,69.819 472.392,69.819 472.392,105.909 		"/>
		<polygon fill="#619AD2" points="467.784,74.427 407.892,74.427 407.892,113.587 439.374,113.587 439.374,128.177 453.964,113.587 
			467.784,113.587 		"/>
		<polygon fill="#FACC14" points="400.214,102.837 432.464,102.837 432.464,124.338 416.339,124.338 416.339,131.913 
			407.689,124.338 400.214,124.338 		"/>
		
			<line fill="none" stroke="#231F20" stroke-width="3.2" stroke-linejoin="round" stroke-miterlimit="10" x1="415.57" y1="91.32" x2="460.874" y2="91.32"/>
		
			<line fill="none" stroke="#231F20" stroke-width="3.2" stroke-linejoin="round" stroke-miterlimit="10" x1="415.57" y1="82.873" x2="460.874" y2="82.873"/>
		
			<line fill="none" stroke="#231F20" stroke-width="3.2" stroke-linejoin="round" stroke-miterlimit="10" x1="415.57" y1="98.999" x2="460.874" y2="98.999"/>
		
			<line fill="none" stroke="#231F20" stroke-width="3.2" stroke-linejoin="round" stroke-miterlimit="10" x1="415.57" y1="108.98" x2="427.088" y2="108.98"/>
		
			<line fill="none" stroke="#231F20" stroke-width="3.2" stroke-linejoin="round" stroke-miterlimit="10" x1="432.464" y1="106.676" x2="443.981" y2="106.676"/>
		
			<line fill="none" stroke="#231F20" stroke-width="3.2" stroke-linejoin="round" stroke-miterlimit="10" x1="449.356" y1="106.676" x2="460.874" y2="106.676"/>
		
			<line fill="none" stroke="#231F20" stroke-width="3.2" stroke-linejoin="round" stroke-miterlimit="10" x1="427.088" y1="116.659" x2="404.82" y2="116.659"/>
	</g>
	<g>
		<g>
			
				<rect x="354.91" y="8.391" fill="none" stroke="#231F20" stroke-width="3.2" stroke-linejoin="round" stroke-miterlimit="10" width="20.731" height="19.197"/>
			
				<line fill="none" stroke="#231F20" stroke-width="3.2" stroke-linejoin="round" stroke-miterlimit="10" x1="345.695" y1="23.749" x2="281.964" y2="23.749"/>
			
				<line fill="none" stroke="#231F20" stroke-width="3.2" stroke-linejoin="round" stroke-miterlimit="10" x1="345.695" y1="12.23" x2="314.214" y2="12.23"/>
		</g>
		
			<line fill="none" stroke="#231F20" stroke-width="3.2" stroke-linejoin="round" stroke-miterlimit="10" x1="375.533" y1="27.728" x2="354.767" y2="8"/>
	</g>
	<g>
		<g>
			<g>
				
					<rect x="166.018" y="11.463" fill="none" stroke="#231F20" stroke-width="3.2" stroke-linejoin="round" stroke-miterlimit="10" width="20.731" height="19.197"/>
				
					<line fill="none" stroke="#231F20" stroke-width="3.2" stroke-linejoin="round" stroke-miterlimit="10" x1="195.964" y1="15.302" x2="227.445" y2="15.302"/>
				
					<line fill="none" stroke="#231F20" stroke-width="3.2" stroke-linejoin="round" stroke-miterlimit="10" x1="195.964" y1="26.819" x2="239.731" y2="26.819"/>
			</g>
			
				<line fill="none" stroke="#231F20" stroke-width="3.2" stroke-linejoin="round" stroke-miterlimit="10" x1="166.126" y1="11.072" x2="186.893" y2="30.799"/>
		</g>
		
			<line fill="none" stroke="#231F20" stroke-width="3.2" stroke-linejoin="round" stroke-miterlimit="10" x1="231.285" y1="15.302" x2="239.731" y2="15.302"/>
	</g>
	<g>
		<g>
			<rect x="4" y="165.034" fill="#A8AAAD" width="16.892" height="15.356"/>
			
				<line fill="none" stroke="#231F20" stroke-width="3.2" stroke-linejoin="round" stroke-miterlimit="10" x1="27.803" y1="168.105" x2="58.517" y2="168.105"/>
			
				<line fill="none" stroke="#231F20" stroke-width="3.2" stroke-linejoin="round" stroke-miterlimit="10" x1="27.803" y1="177.319" x2="70.803" y2="177.319"/>
		</g>
		
			<line fill="none" stroke="#231F20" stroke-width="3.2" stroke-linejoin="round" stroke-miterlimit="10" x1="4.29" y1="165.411" x2="20.867" y2="181.159"/>
	</g>
	<g>
	</g>
	<g>
	</g>
	<g>
	</g>
	<rect x="139.143" y="136.623" fill="#BDBEC0" width="11.517" height="3.839"/>
	<rect x="331.874" y="97.463" fill="#BDBEC0" width="10.751" height="3.839"/>
</g>
</svg>
