<?xml version="1.0" encoding="utf-8"?>
<!-- Generator: Adobe Illustrator 22.1.0, SVG Export Plug-In . SVG Version: 6.00 Build 0)  -->
<svg version="1.1" id="Layer_1" xmlns="http://www.w3.org/2000/svg" xmlns:xlink="http://www.w3.org/1999/xlink" x="0px" y="0px"
	 viewBox="0 0 124 104" style="enable-background:new 0 0 124 104;" xml:space="preserve" width="124px" height="104px">
<style type="text/css">
	.st0{fill:#FACC0C;stroke:#000000;stroke-miterlimit:10;}
</style>
<path class="st0" d="M30.3,67.1l6.6,5.2l3.5,4.4l5.2,3.9l8.7,9.2l5.7,4.4l1.7,0.9h3.1h4.4h4.4l8.7,0.9h10.9h10.1l6.1-0.9l1.7-1.3
	l-0.4-2.6l1.3-3.9v-6.6v-7.4v-6.1v-8.7v-14v-3.5l-1.3-2.2h-1.3H105H102h-3.5h-2.2l-0.9,0.9v0.9l0.9,2.6v3.1v3.5v2.2L95,53.5h-4.4
	h-7.4h-6.6c0,0,0-2.2-0.4-3.1s0.9-1.7,0.9-1.7l0.9-1.7v-2.2v-2.2v-3.9H74h-7.9H17.2v14L30.3,67.1z"/>
<path class="st0" d="M22.9,77.1c0,0,0,9.6,0,10.9c0,1.3,12.7,3.1,12.7,3.1l3.5-0.9L23.3,77.1H22.9z"/>
<path class="st0" d="M86.7,102.5"/>
<polyline class="st0" points="82.8,20.3 81.9,22.5 82.3,25.6 84.5,28.6 88.4,28.6 91.1,26.9 91.5,24.3 91.5,21.2 90.2,20.3 86.7,19 
	"/>
<g>
	<path d="M25,32c0,0.9-0.7,1.7-1.7,1.7c-0.9,0-1.7-0.7-1.7-1.7c0-0.9,0.7-1.7,1.7-1.7C24.2,30.3,25,31.1,25,32L25,32z M25,32"/>
	<path d="M31.6,32c0,0.9-0.7,1.7-1.7,1.7c-0.9,0-1.7-0.7-1.7-1.7c0-0.9,0.7-1.7,1.7-1.7C30.9,30.3,31.6,31.1,31.6,32L31.6,32z
		 M31.6,32"/>
	<path d="M38.3,32c0,0.9-0.7,1.7-1.7,1.7c-0.9,0-1.7-0.7-1.7-1.7c0-0.9,0.7-1.7,1.7-1.7C37.6,30.3,38.3,31.1,38.3,32L38.3,32z
		 M38.3,32"/>
	<path d="M21.7,91.9h21.4L21.7,71.7V91.9z M25,79.4l9.7,9.1H25V79.4z M25,79.4"/>
	<path d="M113.2,10.3v-10h-10v3.3H69.9V0.4h-10v10h10V7h5.6c-5.4,3.6-9,9.7-9,16.6H20c-2.8,0-5,2.2-5,5v20.9c-1.5-1.3-2.8-1-3.3-0.8
		C11.2,49,10,49.7,10,52v46.6c0,2.8,2.2,5,5,5h49.9c2.2,0,2.9-1.1,3.2-1.7c0.3-0.6,0.4-1.9-1.1-3.4l-1.6-1.5h42.8c2.8,0,5-2.2,5-5
		V28.7c0-2.8-2.2-5-5-5h-1.7c0-6.9-3.6-13.1-9-16.6h5.6v3.3H113.2z M106.6,3.7h3.3V7h-3.3V3.7z M66.6,7h-3.3V3.7h3.3V7z M18.3,28.7
		c0-0.9,0.7-1.7,1.7-1.7h46.9c0,0,0,0,0,0c0.6,3.7,2.3,7.2,4.8,10H18.3V28.7z M15,100.2c-0.9,0-1.7-0.7-1.7-1.7v-1.7h3.3v-3.3h-3.3
		v-3.3h3.3v-3.3h-3.3v-3.3h3.3v-3.3h-3.3v-3.3h3.3v-3.3h-3.3v-3.3h3.3v-3.3h-3.3v-3.3h3.3v-3.3h-3.3v-7.8l17.4,16.4l5,4.7l28.3,26.6
		H15z M25,58.9V47h36.6v23.3H37.1L25,58.9z M109.9,91.9c0,0.9-0.7,1.7-1.7,1.7H61.8l-21.2-20h24.3v-30H21.7v12.1l-3.3-3.1V40.3h57.3
		c0.3,0.2,0.6,0.4,1,0.6v1.9c-1,0.8-1.7,2-1.7,3.3c0,0.9,0.3,1.8,0.9,2.5c-0.5,0.7-0.9,1.6-0.9,2.5c0,2.3,1.9,4.2,4.2,4.2h15
		c2.3,0,4.2-1.9,4.2-4.2c0-0.9-0.3-1.8-0.9-2.5c0.5-0.7,0.9-1.6,0.9-2.5c0-1.4-0.7-2.5-1.7-3.3v-1.9c0.3-0.2,0.6-0.4,1-0.6h12.4
		V91.9z M79.1,50.3h15c0.5,0,0.8,0.4,0.8,0.8c0,0.5-0.4,0.8-0.8,0.8h-15c-0.5,0-0.8-0.4-0.8-0.8S78.6,50.3,79.1,50.3L79.1,50.3z
		 M78.3,46.1c0-0.5,0.4-0.8,0.8-0.8h15c0.5,0,0.8,0.4,0.8,0.8c0,0.5-0.4,0.8-0.8,0.8h-15C78.6,47,78.3,46.6,78.3,46.1L78.3,46.1z
		 M106.3,27h1.9c0.9,0,1.7,0.7,1.7,1.7V37h-8.5c2.5-2.7,4.1-6.1,4.8-9.7C106.2,27.2,106.3,27.1,106.3,27L106.3,27z M103.2,23.7
		c0,6.3-3.5,11.9-9.1,14.8l-0.9,0.5v3h-5V30.1c2.9-0.7,5-3.3,5-6.4c0-3.7-3-6.7-6.7-6.7c-3.7,0-6.7,3-6.7,6.7c0,3.1,2.1,5.7,5,6.4
		V42h-5v-3L79,38.5c-5.6-2.9-9.1-8.5-9.1-14.8C69.9,14.5,77.4,7,86.6,7C95.8,7,103.2,14.5,103.2,23.7L103.2,23.7z M86.6,27
		c-1.8,0-3.3-1.5-3.3-3.3c0-1.8,1.5-3.3,3.3-3.3c1.8,0,3.3,1.5,3.3,3.3C89.9,25.5,88.4,27,86.6,27L86.6,27z M86.6,27"/>
	<rect x="68.3" y="60.3" width="38.3" height="3.3"/>
	<rect x="68.3" y="66.9" width="38.3" height="3.3"/>
	<rect x="68.3" y="73.6" width="38.3" height="3.3"/>
	<rect x="68.3" y="80.3" width="38.3" height="3.3"/>
</g>
</svg>
