<?xml version="1.0" encoding="utf-8"?>
<!-- Generator: Adobe Illustrator 16.0.0, SVG Export Plug-In . SVG Version: 6.00 Build 0)  -->
<!DOCTYPE svg PUBLIC "-//W3C//DTD SVG 1.1//EN" "http://www.w3.org/Graphics/SVG/1.1/DTD/svg11.dtd">
<svg version="1.1" id="Layer_2" xmlns="http://www.w3.org/2000/svg" xmlns:xlink="http://www.w3.org/1999/xlink" x="0px" y="0px"
	 width="124px" height="104px" viewBox="0 0 124 104" enable-background="new 0 0 124 104" xml:space="preserve">
<g>
	<path d="M111,11.167v82.5H14v-82.5H111 M114,8.167H11v88.5h103V8.167L114,8.167z"/>
</g>
<rect x="3" y="93.698" width="118.999" height="3.041"/>
<rect x="11.624" y="23.042" width="101.751" height="3.041"/>
<rect x="47.917" y="16.042" width="59" height="3.041"/>
<rect x="40.959" y="10.958" width="3.041" height="12.876"/>
<rect x="22" y="59.999" width="55" height="3.041"/>
<rect x="22" y="67.645" width="55" height="3.041"/>
<rect x="22" y="75.291" width="55" height="3.041"/>
<rect x="22" y="82.938" width="55" height="3.041"/>
<g>
	<path d="M42,36v18.083H24V36H42 M44,34H22v22.083h22V34L44,34z"/>
	<rect x="24" y="36" fill="#FACC0C" width="18" height="18.083"/>
</g>
<g>
	<path fill="#FACC0C" d="M47.08,32.92v24h56.84v-24H47.08z M69.939,47H66v-3.94h3.939V47z M77,47h-3.939v-3.94H77V47z M85,47h-3.939
		v-3.94H85V47z"/>
</g>
<rect x="33" y="16.042" width="3.041" height="3.041"/>
<rect x="25.958" y="16.042" width="3.041" height="3.041"/>
<rect x="18" y="16.042" width="3.041" height="3.041"/>
<rect x="81.014" y="58.655" fill="#FACC0C" width="22.924" height="27.321"/>
<rect x="66" y="43.06" width="3.939" height="3.94"/>
<rect x="73.063" y="43.06" width="3.939" height="3.94"/>
<rect x="81.063" y="43.06" width="3.939" height="3.94"/>
</svg>
