<?xml version="1.0" encoding="utf-8"?>
<!-- Generator: Adobe Illustrator 16.0.0, SVG Export Plug-In . SVG Version: 6.00 Build 0)  -->
<!DOCTYPE svg PUBLIC "-//W3C//DTD SVG 1.1//EN" "http://www.w3.org/Graphics/SVG/1.1/DTD/svg11.dtd">
<svg version="1.1" id="Layer_3" xmlns="http://www.w3.org/2000/svg" xmlns:xlink="http://www.w3.org/1999/xlink" x="0px" y="0px"
	 width="124px" height="104px" viewBox="0 0 124 104" enable-background="new 0 0 124 104" xml:space="preserve">
<g>
	<g>
		<path fill="#FACC0C" d="M121.25,72.667v24.5H3.917v-24.5H121.25 M122,69.917H3.167c-1.104,0-2,0.896-2,2v26c0,1.104,0.896,2,2,2
			H122c1.104,0,2-0.896,2-2v-26C124,70.813,123.104,69.917,122,69.917L122,69.917z"/>
	</g>
</g>
<g>
	<g>
		<path d="M92.949,61.158l21.346,22.937l-6.222,5.79L86.729,66.948L92.949,61.158 M92.986,58.098c-0.487,0-0.979,0.178-1.361,0.536
			l-7.32,6.813c-0.809,0.752-0.854,2.018-0.102,2.826l22.367,24.035c0.395,0.424,0.93,0.637,1.465,0.637
			c0.488,0,0.979-0.178,1.361-0.535l7.319-6.813c0.81-0.754,0.854-2.02,0.103-2.826L94.451,58.734
			C94.059,58.313,93.521,58.098,92.986,58.098L92.986,58.098z"/>
	</g>
</g>
<g>
	<rect x="7.167" y="71.5" fill="#FACC0C" width="2.75" height="26.75"/>
</g>
<g>
	<rect x="13.583" y="76.083" fill="#FACC0C" width="2.75" height="15.667"/>
</g>
<g>
	<g>
		<path d="M63,6.75c13.279,0,24.083,10.804,24.083,24.083S76.279,54.916,63,54.916S38.917,44.113,38.917,30.833S49.721,6.75,63,6.75
			 M63,4C48.181,4,36.167,16.014,36.167,30.833S48.181,57.666,63,57.666c14.818,0,26.833-12.013,26.833-26.833
			C89.833,16.013,77.818,4,63,4L63,4z"/>
	</g>
</g>
<g>
	<g>
		<path d="M63,12.917c9.88,0,17.917,8.038,17.917,17.917S72.88,48.75,63,48.75c-9.879,0-17.917-8.037-17.917-17.917
			S53.121,12.917,63,12.917 M63,10.167c-11.414,0-20.667,9.253-20.667,20.667S51.586,51.5,63,51.5s20.667-9.252,20.667-20.667
			S74.414,10.167,63,10.167L63,10.167z"/>
	</g>
</g>
<g>
	<path d="M49.506,28.934l-2.724-0.379C47.901,20.518,54.874,14.458,63,14.458v2.75C56.238,17.208,50.437,22.249,49.506,28.934z"/>
</g>
<g>
	<path d="M63,24.5c-3.5,0-6.33,2.83-6.33,6.33c0,1.24,0.36,2.4,0.98,3.37c0.49,0.8,1.16,1.47,1.95,1.97c0.98,0.64,2.15,1,3.4,1
		c2.24,0,4.2-1.16,5.32-2.92c0.51-0.78,0.85-1.68,0.959-2.65c0.029-0.25,0.051-0.51,0.051-0.77C69.33,27.33,66.5,24.5,63,24.5z
		 M66.58,30.83c0,0.71-0.21,1.38-0.57,1.94c-0.63,0.99-1.74,1.65-3.01,1.65c-0.62,0-1.2-0.16-1.71-0.44
		c-0.86-0.46-1.5-1.27-1.75-2.24c-0.08-0.29-0.12-0.6-0.12-0.91c0-1.97,1.6-3.58,3.58-3.58c1.609,0,2.971,1.06,3.42,2.52
		C66.52,30.1,66.58,30.46,66.58,30.83z"/>
</g>
<g>
	<g>
		<path d="M61.29,33.98l-1.69,2.19L40.28,61.28c-0.24,0.31-0.61,0.5-1,0.528h-0.09c-0.36,0-0.71-0.141-0.97-0.391l-8.6-8.5
			l-7.66,8.439l-2.04-1.852l8.62-9.5c0.26-0.27,0.61-0.44,0.98-0.45c0.38-0.01,0.74,0.14,1.01,0.4l8.52,8.41l18.6-24.17l1.89-2.46
			C59.79,32.71,60.43,33.52,61.29,33.98z"/>
	</g>
	<g>
		<path d="M117,21.93L94.5,49.56c-0.439,0.54-1.221,0.66-1.8,0.29l-24.38-15.6l-2.313-1.48c0.36-0.56,0.57-1.23,0.57-1.94
			c0-0.37-0.063-0.73-0.16-1.06l2.859,1.83l23.869,15.27l21.722-26.68L117,21.93z"/>
	</g>
</g>
<g>
	<polygon points="118.313,27.625 115.563,27.625 115.563,21.625 108.813,21.625 108.813,18.875 118.313,18.875 	"/>
</g>
<g>
	<rect x="78.299" y="53.994" transform="matrix(-0.7071 -0.7071 0.7071 -0.7071 107.3004 155.1826)" width="14.982" height="2.75"/>
</g>
<g>
	<polygon points="86.152,65.598 75.234,54.719 77.505,53.059 88.1,63.652 	"/>
</g>
</svg>
