<?xml version="1.0" encoding="utf-8"?>
<!-- Generator: Adobe Illustrator 22.1.0, SVG Export Plug-In . SVG Version: 6.00 Build 0)  -->
<svg version="1.1" id="Layer_1" xmlns="http://www.w3.org/2000/svg" xmlns:xlink="http://www.w3.org/1999/xlink" x="0px" y="0px"
	 viewBox="0 0 130 125" style="enable-background:new 0 0 130 125;" xml:space="preserve" height="125px" width="130px">
<style type="text/css">
	.st0{fill:#FACC0C;}
</style>
<g>
	<g>
		<g>
			<path d="M121.4,50.7c4-3,6.6-7.8,6.6-13.2c0-9.2-7.5-16.7-16.7-16.7s-16.7,7.5-16.7,16.7c0,5,2.2,9.4,5.7,12.5H89.3l-14-14
				c-0.8-0.8-2.1-0.8-2.9,0L64,44.4c-0.8,0.8-0.8,2.1,0,2.9l18.8,18.7c0.4,0.4,0.9,0.6,1.5,0.6h16.7v14.6H90.5H65.2l10.3-15.5
				l-3.5-2.3L60.2,81.3h-5.1V70.8c0-1.2-0.9-2.1-2.1-2.1H36.3v-8.3c0-4.4-2.7-8.1-6.6-9.7c4-3,6.6-7.8,6.6-13.2
				c0-9.2-7.5-16.7-16.7-16.7S3,28.3,3,37.5c0,5.4,2.6,10.2,6.6,13.2C5.7,52.3,3,56,3,60.4v29.2C3,95.3,7.7,100,13.4,100v25h4.2v-25
				h14.6v22.9c0,1.2,0.9,2.1,2.1,2.1h14.6c1.2,0,2.1-0.9,2.1-2.1V91.7c0-2.3-0.8-4.5-2.1-6.3h2.1H53h10.4v35.4h-8.3v4.2h20.8v-4.2
				h-8.3V85.4h14.6c-1.3,1.7-2.1,3.9-2.1,6.3v31.3c0,1.2,0.9,2.1,2.1,2.1h14.6c1.2,0,2.1-0.9,2.1-2.1V100h14.6v25h4.2v-25
				c5.7,0,10.4-4.7,10.4-10.4V60.4C128,56,125.3,52.3,121.4,50.7z M7.2,37.5c0-6.9,5.6-12.5,12.5-12.5s12.5,5.6,12.5,12.5
				S26.6,50,19.7,50S7.2,44.4,7.2,37.5z M50.9,81.3H23.8V64.6h-4.2v18.8c0,1.2,0.9,2.1,2.1,2.1h18.8c3.4,0,6.3,2.8,6.3,6.3v29.2
				H36.3V97.9c0-1.2-0.9-2.1-2.1-2.1H13.4c-3.4,0-6.3-2.8-6.3-6.3V60.4c0-3.4,2.8-6.3,6.3-6.3h12.5c3.4,0,6.3,2.8,6.3,6.3v10.4
				c0,1.2,0.9,2.1,2.1,2.1h16.7V81.3z M98.8,37.5c0-6.9,5.6-12.5,12.5-12.5s12.5,5.6,12.5,12.5S118.2,50,111.3,50
				S98.8,44.4,98.8,37.5z M123.8,89.6c0,3.4-2.8,6.3-6.3,6.3H96.8c-1.2,0-2.1,0.9-2.1,2.1v22.9H84.3V91.7c0-3.4,2.8-6.3,6.3-6.3H103
				c1.2,0,2.1-0.9,2.1-2.1V64.6c0-1.2-0.9-2.1-2.1-2.1H85.1L68.4,45.8l5.4-5.4l13.1,13.1c0.4,0.4,0.9,0.6,1.5,0.6h29.2
				c3.4,0,6.3,2.8,6.3,6.3V89.6z"/>
		</g>
	</g>
	<g>
		<g>
			<path class="st0" d="M86.3,0H44.7c-3.4,0-6.3,2.8-6.3,6.3v16.7c0,3.4,2.8,6.3,6.3,6.3h2.1v12.5c0,0.8,0.5,1.6,1.3,1.9
				c0.3,0.1,0.5,0.2,0.8,0.2c0.5,0,1.1-0.2,1.5-0.6l14-14h22.1c3.4,0,6.3-2.8,6.3-6.3V6.3C92.6,2.8,89.8,0,86.3,0z M88.4,22.9
				c0,1.2-0.9,2.1-2.1,2.1H63.4c-0.6,0-1.1,0.2-1.5,0.6l-11,11v-9.6c0-1.2-0.9-2.1-2.1-2.1h-4.2c-1.2,0-2.1-0.9-2.1-2.1V6.3
				c0-1.2,0.9-2.1,2.1-2.1h41.7c1.1,0,2.1,0.9,2.1,2.1V22.9z"/>
		</g>
	</g>
	<g>
		<g>
			<rect x="46.8" y="8.3" class="st0" width="12.5" height="4.2"/>
		</g>
	</g>
	<g>
		<g>
			<rect x="46.8" y="16.7" class="st0" width="37.5" height="4.2"/>
		</g>
	</g>
	<g>
		<g>
			<rect x="63.4" y="8.3" class="st0" width="20.8" height="4.2"/>
		</g>
	</g>
</g>
</svg>
