<?xml version="1.0" encoding="utf-8"?>
<!-- Generator: Adobe Illustrator 22.1.0, SVG Export Plug-In . SVG Version: 6.00 Build 0)  -->
<svg version="1.1" id="Layer_1" xmlns="http://www.w3.org/2000/svg" xmlns:xlink="http://www.w3.org/1999/xlink" x="0px" y="0px"
	 viewBox="0 0 130 125" style="enable-background:new 0 0 130 125;" xml:space="preserve" height="125px" width="130px" >
<style type="text/css">
	.st0{display:none;}
	.st1{display:inline;}
	.st2{fill:#FACC0C;}
</style>
<g class="st0">
	<g class="st1">
		<g>
			<path d="M121.4,50.7c4-3,6.6-7.8,6.6-13.2c0-9.2-7.5-16.7-16.7-16.7s-16.7,7.5-16.7,16.7c0,5,2.2,9.4,5.7,12.5H89.3l-14-14
				c-0.8-0.8-2.1-0.8-2.9,0L64,44.4c-0.8,0.8-0.8,2.1,0,2.9l18.8,18.7c0.4,0.4,0.9,0.6,1.5,0.6h16.7v14.6H90.5H65.2l10.3-15.5
				l-3.5-2.3L60.2,81.3h-5.1V70.8c0-1.2-0.9-2.1-2.1-2.1H36.3v-8.3c0-4.4-2.7-8.1-6.6-9.7c4-3,6.6-7.8,6.6-13.2
				c0-9.2-7.5-16.7-16.7-16.7S3,28.3,3,37.5c0,5.4,2.6,10.2,6.6,13.2C5.7,52.3,3,56,3,60.4v29.2C3,95.3,7.7,100,13.4,100v25h4.2v-25
				h14.6v22.9c0,1.2,0.9,2.1,2.1,2.1h14.6c1.2,0,2.1-0.9,2.1-2.1V91.7c0-2.3-0.8-4.5-2.1-6.3h2.1H53h10.4v35.4h-8.3v4.2h20.8v-4.2
				h-8.3V85.4h14.6c-1.3,1.7-2.1,3.9-2.1,6.3v31.3c0,1.2,0.9,2.1,2.1,2.1h14.6c1.2,0,2.1-0.9,2.1-2.1V100h14.6v25h4.2v-25
				c5.7,0,10.4-4.7,10.4-10.4V60.4C128,56,125.3,52.3,121.4,50.7z M7.2,37.5c0-6.9,5.6-12.5,12.5-12.5s12.5,5.6,12.5,12.5
				S26.6,50,19.7,50S7.2,44.4,7.2,37.5z M50.9,81.3H23.8V64.6h-4.2v18.8c0,1.2,0.9,2.1,2.1,2.1h18.8c3.4,0,6.3,2.8,6.3,6.3v29.2
				H36.3V97.9c0-1.2-0.9-2.1-2.1-2.1H13.4c-3.4,0-6.3-2.8-6.3-6.3V60.4c0-3.4,2.8-6.3,6.3-6.3h12.5c3.4,0,6.3,2.8,6.3,6.3v10.4
				c0,1.2,0.9,2.1,2.1,2.1h16.7V81.3z M98.8,37.5c0-6.9,5.6-12.5,12.5-12.5s12.5,5.6,12.5,12.5S118.2,50,111.3,50
				S98.8,44.4,98.8,37.5z M123.8,89.6c0,3.4-2.8,6.3-6.3,6.3H96.8c-1.2,0-2.1,0.9-2.1,2.1v22.9H84.3V91.7c0-3.4,2.8-6.3,6.3-6.3H103
				c1.2,0,2.1-0.9,2.1-2.1V64.6c0-1.2-0.9-2.1-2.1-2.1H85.1L68.4,45.8l5.4-5.4l13.1,13.1c0.4,0.4,0.9,0.6,1.5,0.6h29.2
				c3.4,0,6.3,2.8,6.3,6.3V89.6z"/>
		</g>
	</g>
	<g class="st1">
		<g>
			<path class="st2" d="M86.3,0H44.7c-3.4,0-6.3,2.8-6.3,6.3v16.7c0,3.4,2.8,6.3,6.3,6.3h2.1v12.5c0,0.8,0.5,1.6,1.3,1.9
				c0.3,0.1,0.5,0.2,0.8,0.2c0.5,0,1.1-0.2,1.5-0.6l14-14h22.1c3.4,0,6.3-2.8,6.3-6.3V6.3C92.6,2.8,89.8,0,86.3,0z M88.4,22.9
				c0,1.2-0.9,2.1-2.1,2.1H63.4c-0.6,0-1.1,0.2-1.5,0.6l-11,11v-9.6c0-1.2-0.9-2.1-2.1-2.1h-4.2c-1.2,0-2.1-0.9-2.1-2.1V6.3
				c0-1.2,0.9-2.1,2.1-2.1h41.7c1.1,0,2.1,0.9,2.1,2.1V22.9z"/>
		</g>
	</g>
	<g class="st1">
		<g>
			<rect x="46.8" y="8.3" class="st2" width="12.5" height="4.2"/>
		</g>
	</g>
	<g class="st1">
		<g>
			<rect x="46.8" y="16.7" class="st2" width="37.5" height="4.2"/>
		</g>
	</g>
	<g class="st1">
		<g>
			<rect x="63.4" y="8.3" class="st2" width="20.8" height="4.2"/>
		</g>
	</g>
</g>
<g>
	<path class="st2" d="M2.5,42.3h17.8c1.4,0,2.5-1.1,2.5-2.5V22c0-1.4-1.1-2.5-2.5-2.5H5v-1.8l4.5-4.5c1-1,1-2.5,0-3.5
		c-1-1-2.5-1-3.5,0l-5.2,5.2C0.3,15.3,0,16,0,16.6V22V25v14.8C0,41.2,1.1,42.3,2.5,42.3z M17.8,24.5v12.9H5V25v-0.6H17.8z"/>
	<path class="st2" d="M31.1,42.3h17.8c1.4,0,2.5-1.1,2.5-2.5V22c0-1.4-1.1-2.5-2.5-2.5H33.6v-1.8l4.5-4.5c1-1,1-2.5,0-3.5
		c-1-1-2.5-1-3.5,0l-5.2,5.2c-0.5,0.5-0.7,1.1-0.7,1.8V22V25v14.8C28.6,41.2,29.7,42.3,31.1,42.3z M46.4,24.5v12.9H33.6V25v-0.6
		H46.4z"/>
	<path class="st2" d="M127.5,82.4h-17.8c-1.4,0-2.5,1.1-2.5,2.5v17.8c0,1.4,1.1,2.5,2.5,2.5H125v1.8l-4.5,4.5c-1,1-1,2.5,0,3.5
		c0.5,0.5,1.1,0.7,1.8,0.7c0.6,0,1.3-0.2,1.8-0.7l5.2-5.2c0.5-0.5,0.7-1.1,0.7-1.8v-5.3v-3.1V84.9C130,83.5,128.9,82.4,127.5,82.4z
		 M112.2,100.2V87.4H125v12.3v0.6H112.2z"/>
	<path class="st2" d="M98.9,82.4H81.1c-1.4,0-2.5,1.1-2.5,2.5v17.8c0,1.4,1.1,2.5,2.5,2.5h15.4v1.8l-4.5,4.5c-1,1-1,2.5,0,3.5
		c0.5,0.5,1.1,0.7,1.8,0.7s1.3-0.2,1.8-0.7l5.2-5.2c0.5-0.5,0.7-1.1,0.7-1.8v-5.3v-3.1V84.9C101.4,83.5,100.3,82.4,98.9,82.4z
		 M83.6,100.2V87.4h12.9v12.3v0.6H83.6z"/>
	<path d="M61.6,42.3h65.9c1.4,0,2.5-1.1,2.5-2.5s-1.1-2.5-2.5-2.5H61.6c-1.4,0-2.5,1.1-2.5,2.5S60.2,42.3,61.6,42.3z"/>
	<path d="M127.5,53.1H2.5c-1.4,0-2.5,1.1-2.5,2.5S1.1,58,2.5,58h125c1.4,0,2.5-1.1,2.5-2.5S128.9,53.1,127.5,53.1z"/>
	<path d="M127.5,68.8H2.5c-1.4,0-2.5,1.1-2.5,2.5c0,1.4,1.1,2.5,2.5,2.5h125c1.4,0,2.5-1.1,2.5-2.5S128.9,68.8,127.5,68.8z"/>
	<path d="M68.5,100.2h-66c-1.4,0-2.5,1.1-2.5,2.5c0,1.4,1.1,2.5,2.5,2.5h66c1.4,0,2.5-1.1,2.5-2.5C71,101.3,69.8,100.2,68.5,100.2z"
		/>
	<path d="M68.5,84.5h-66C1.1,84.5,0,85.6,0,87c0,1.4,1.1,2.5,2.5,2.5h66c1.4,0,2.5-1.1,2.5-2.5C71,85.6,69.8,84.5,68.5,84.5z"/>
</g>
</svg>
