<?xml version="1.0" encoding="utf-8"?>
<!-- Generator: Adobe Illustrator 22.1.0, SVG Export Plug-In . SVG Version: 6.00 Build 0)  -->
<svg version="1.1" id="Layer_1" xmlns="http://www.w3.org/2000/svg" xmlns:xlink="http://www.w3.org/1999/xlink" x="0px" y="0px"
	 viewBox="0 0 130 125" style="enable-background:new 0 0 130 125;" xml:space="preserve" height="125px" width="130px">
<style type="text/css">
	.st0{display:none;}
	.st1{display:inline;}
	.st2{fill:#FACC0C;}
	.st3{display:inline;fill:#FACC0C;}
</style>
<g class="st0">
	<g class="st1">
		<g>
			<path d="M121.4,50.7c4-3,6.6-7.8,6.6-13.2c0-9.2-7.5-16.7-16.7-16.7s-16.7,7.5-16.7,16.7c0,5,2.2,9.4,5.7,12.5H89.3l-14-14
				c-0.8-0.8-2.1-0.8-2.9,0L64,44.4c-0.8,0.8-0.8,2.1,0,2.9l18.8,18.7c0.4,0.4,0.9,0.6,1.5,0.6h16.7v14.6H90.5H65.2l10.3-15.5
				l-3.5-2.3L60.2,81.3h-5.1V70.8c0-1.2-0.9-2.1-2.1-2.1H36.3v-8.3c0-4.4-2.7-8.1-6.6-9.7c4-3,6.6-7.8,6.6-13.2
				c0-9.2-7.5-16.7-16.7-16.7S3,28.3,3,37.5c0,5.4,2.6,10.2,6.6,13.2C5.7,52.3,3,56,3,60.4v29.2C3,95.3,7.7,100,13.4,100v25h4.2v-25
				h14.6v22.9c0,1.2,0.9,2.1,2.1,2.1h14.6c1.2,0,2.1-0.9,2.1-2.1V91.7c0-2.3-0.8-4.5-2.1-6.3h2.1H53h10.4v35.4h-8.3v4.2h20.8v-4.2
				h-8.3V85.4h14.6c-1.3,1.7-2.1,3.9-2.1,6.3v31.3c0,1.2,0.9,2.1,2.1,2.1h14.6c1.2,0,2.1-0.9,2.1-2.1V100h14.6v25h4.2v-25
				c5.7,0,10.4-4.7,10.4-10.4V60.4C128,56,125.3,52.3,121.4,50.7z M7.2,37.5c0-6.9,5.6-12.5,12.5-12.5s12.5,5.6,12.5,12.5
				S26.6,50,19.7,50S7.2,44.4,7.2,37.5z M50.9,81.3H23.8V64.6h-4.2v18.8c0,1.2,0.9,2.1,2.1,2.1h18.8c3.4,0,6.3,2.8,6.3,6.3v29.2
				H36.3V97.9c0-1.2-0.9-2.1-2.1-2.1H13.4c-3.4,0-6.3-2.8-6.3-6.3V60.4c0-3.4,2.8-6.3,6.3-6.3h12.5c3.4,0,6.3,2.8,6.3,6.3v10.4
				c0,1.2,0.9,2.1,2.1,2.1h16.7V81.3z M98.8,37.5c0-6.9,5.6-12.5,12.5-12.5s12.5,5.6,12.5,12.5S118.2,50,111.3,50
				S98.8,44.4,98.8,37.5z M123.8,89.6c0,3.4-2.8,6.3-6.3,6.3H96.8c-1.2,0-2.1,0.9-2.1,2.1v22.9H84.3V91.7c0-3.4,2.8-6.3,6.3-6.3H103
				c1.2,0,2.1-0.9,2.1-2.1V64.6c0-1.2-0.9-2.1-2.1-2.1H85.1L68.4,45.8l5.4-5.4l13.1,13.1c0.4,0.4,0.9,0.6,1.5,0.6h29.2
				c3.4,0,6.3,2.8,6.3,6.3V89.6z"/>
		</g>
	</g>
	<g class="st1">
		<g>
			<path class="st2" d="M86.3,0H44.7c-3.4,0-6.3,2.8-6.3,6.3v16.7c0,3.4,2.8,6.3,6.3,6.3h2.1v12.5c0,0.8,0.5,1.6,1.3,1.9
				c0.3,0.1,0.5,0.2,0.8,0.2c0.5,0,1.1-0.2,1.5-0.6l14-14h22.1c3.4,0,6.3-2.8,6.3-6.3V6.3C92.6,2.8,89.8,0,86.3,0z M88.4,22.9
				c0,1.2-0.9,2.1-2.1,2.1H63.4c-0.6,0-1.1,0.2-1.5,0.6l-11,11v-9.6c0-1.2-0.9-2.1-2.1-2.1h-4.2c-1.2,0-2.1-0.9-2.1-2.1V6.3
				c0-1.2,0.9-2.1,2.1-2.1h41.7c1.1,0,2.1,0.9,2.1,2.1V22.9z"/>
		</g>
	</g>
	<g class="st1">
		<g>
			<rect x="46.8" y="8.3" class="st2" width="12.5" height="4.2"/>
		</g>
	</g>
	<g class="st1">
		<g>
			<rect x="46.8" y="16.7" class="st2" width="37.5" height="4.2"/>
		</g>
	</g>
	<g class="st1">
		<g>
			<rect x="63.4" y="8.3" class="st2" width="20.8" height="4.2"/>
		</g>
	</g>
</g>
<g class="st0">
	<path class="st3" d="M2.5,42.3h17.8c1.4,0,2.5-1.1,2.5-2.5V22c0-1.4-1.1-2.5-2.5-2.5H5v-1.8l4.5-4.5c1-1,1-2.5,0-3.5
		c-1-1-2.5-1-3.5,0l-5.2,5.2C0.3,15.3,0,16,0,16.6V22V25v14.8C0,41.2,1.1,42.3,2.5,42.3z M17.8,24.5v12.9H5V25v-0.6H17.8z"/>
	<path class="st3" d="M31.1,42.3h17.8c1.4,0,2.5-1.1,2.5-2.5V22c0-1.4-1.1-2.5-2.5-2.5H33.6v-1.8l4.5-4.5c1-1,1-2.5,0-3.5
		c-1-1-2.5-1-3.5,0l-5.2,5.2c-0.5,0.5-0.7,1.1-0.7,1.8V22V25v14.8C28.6,41.2,29.7,42.3,31.1,42.3z M46.4,24.5v12.9H33.6V25v-0.6
		H46.4z"/>
	<path class="st3" d="M127.5,82.4h-17.8c-1.4,0-2.5,1.1-2.5,2.5v17.8c0,1.4,1.1,2.5,2.5,2.5H125v1.8l-4.5,4.5c-1,1-1,2.5,0,3.5
		c0.5,0.5,1.1,0.7,1.8,0.7c0.6,0,1.3-0.2,1.8-0.7l5.2-5.2c0.5-0.5,0.7-1.1,0.7-1.8v-5.3v-3.1V84.9C130,83.5,128.9,82.4,127.5,82.4z
		 M112.2,100.2V87.4H125v12.3v0.6H112.2z"/>
	<path class="st3" d="M98.9,82.4H81.1c-1.4,0-2.5,1.1-2.5,2.5v17.8c0,1.4,1.1,2.5,2.5,2.5h15.4v1.8l-4.5,4.5c-1,1-1,2.5,0,3.5
		c0.5,0.5,1.1,0.7,1.8,0.7s1.3-0.2,1.8-0.7l5.2-5.2c0.5-0.5,0.7-1.1,0.7-1.8v-5.3v-3.1V84.9C101.4,83.5,100.3,82.4,98.9,82.4z
		 M83.6,100.2V87.4h12.9v12.3v0.6H83.6z"/>
	<path class="st1" d="M61.6,42.3h65.9c1.4,0,2.5-1.1,2.5-2.5s-1.1-2.5-2.5-2.5H61.6c-1.4,0-2.5,1.1-2.5,2.5S60.2,42.3,61.6,42.3z"/>
	<path class="st1" d="M127.5,53.1H2.5c-1.4,0-2.5,1.1-2.5,2.5S1.1,58,2.5,58h125c1.4,0,2.5-1.1,2.5-2.5S128.9,53.1,127.5,53.1z"/>
	<path class="st1" d="M127.5,68.8H2.5c-1.4,0-2.5,1.1-2.5,2.5c0,1.4,1.1,2.5,2.5,2.5h125c1.4,0,2.5-1.1,2.5-2.5
		S128.9,68.8,127.5,68.8z"/>
	<path class="st1" d="M68.5,100.2h-66c-1.4,0-2.5,1.1-2.5,2.5c0,1.4,1.1,2.5,2.5,2.5h66c1.4,0,2.5-1.1,2.5-2.5
		C71,101.3,69.8,100.2,68.5,100.2z"/>
	<path class="st1" d="M68.5,84.5h-66C1.1,84.5,0,85.6,0,87c0,1.4,1.1,2.5,2.5,2.5h66c1.4,0,2.5-1.1,2.5-2.5
		C71,85.6,69.8,84.5,68.5,84.5z"/>
</g>
<g>
	<path d="M120.9,15H9.1c-5,0-9.1,4.1-9.1,9.1v77.1c0,5,4.1,9.1,9.1,9.1h111.7c5,0,9.1-4.1,9.1-9.1V24.1C130,19.1,125.9,15,120.9,15z
		 M125.7,101.2c0,2.6-2.2,4.8-4.8,4.8H9.1c-2.6,0-4.8-2.2-4.8-4.8V24.1c0-2.6,2.2-4.8,4.8-4.8h111.7c2.6,0,4.8,2.2,4.8,4.8V101.2z"
		/>
	<path d="M34.7,77.8H15.2c-1.2,0-2.2,1-2.2,2.2s1,2.2,2.2,2.2h19.5c1.2,0,2.2-1,2.2-2.2S35.9,77.8,34.7,77.8z"/>
	<path d="M62.8,77.8H43.3c-1.2,0-2.2,1-2.2,2.2s1,2.2,2.2,2.2h19.5c1.2,0,2.2-1,2.2-2.2S64,77.8,62.8,77.8z"/>
	<path d="M17.3,88.7h-2.2c-1.2,0-2.2,1-2.2,2.2c0,1.2,1,2.2,2.2,2.2h2.2c1.2,0,2.2-1,2.2-2.2C19.5,89.6,18.5,88.7,17.3,88.7z"/>
	<path d="M30.3,88.7H26c-1.2,0-2.2,1-2.2,2.2c0,1.2,1,2.2,2.2,2.2h4.3c1.2,0,2.2-1,2.2-2.2C32.5,89.6,31.5,88.7,30.3,88.7z"/>
	<path d="M41.2,88.7H39c-1.2,0-2.2,1-2.2,2.2c0,1.2,1,2.2,2.2,2.2h2.2c1.2,0,2.2-1,2.2-2.2C43.3,89.6,42.4,88.7,41.2,88.7z"/>
	<path d="M54.2,88.7h-4.3c-1.2,0-2.2,1-2.2,2.2c0,1.2,1,2.2,2.2,2.2h4.3c1.2,0,2.2-1,2.2-2.2C56.3,89.6,55.4,88.7,54.2,88.7z"/>
	<path d="M61.3,89.3c-0.4,0.4-0.6,1-0.6,1.5c0,0.6,0.2,1.1,0.6,1.5c0.4,0.4,1,0.6,1.5,0.6c0.6,0,1.1-0.2,1.5-0.6
		c0.4-0.4,0.6-1,0.6-1.5c0-0.6-0.2-1.1-0.6-1.5C63.5,88.5,62.1,88.5,61.3,89.3z"/>
	<path class="st2" d="M104,69.2c-2.8,0-5.3,0.8-7.6,2.1c-2.2-1.3-4.8-2.1-7.6-2.1c-8.4,0-15.2,6.8-15.2,15.2s6.8,15.2,15.2,15.2
		c2.8,0,5.3-0.8,7.6-2.1c2.2,1.3,4.8,2.1,7.6,2.1c8.4,0,15.2-6.8,15.2-15.2S112.4,69.2,104,69.2z M99.7,84.3c0,3-1.2,5.8-3.3,7.7
		c-2-2-3.3-4.7-3.3-7.7c0-3,1.2-5.8,3.3-7.7C98.4,78.6,99.7,81.3,99.7,84.3z M78,84.3c0-6,4.9-10.8,10.8-10.8c1.4,0,2.7,0.3,3.9,0.7
		c-2.4,2.7-3.9,6.2-3.9,10.1c0,3.9,1.5,7.4,3.9,10.1c-1.2,0.5-2.5,0.7-3.9,0.7C82.9,95.2,78,90.3,78,84.3z M104,95.2
		c-1.4,0-2.7-0.3-3.9-0.7c2.4-2.7,3.9-6.2,3.9-10.1c0-3.9-1.5-7.4-3.9-10.1c1.2-0.5,2.5-0.7,3.9-0.7c6,0,10.8,4.9,10.8,10.8
		C114.8,90.3,110,95.2,104,95.2z"/>
	<path class="st2" d="M17.9,62.7h13h3.2h13c2.7,0,4.9-2.2,4.9-4.9V40.4v-3.2c0-2.7-2.2-4.9-4.9-4.9H30.9h-13c-2.7,0-4.9,2.2-4.9,4.9
		v20.6C13,60.5,15.2,62.7,17.9,62.7z M26,49.7h-8.7v-4.3H26V49.7z M17.3,57.8V54H26v3.8c0,0.2,0,0.4,0.1,0.6h-8.2
		C17.6,58.3,17.3,58.1,17.3,57.8z M47.7,49.7H39v-3.8c0-0.3,0.2-0.6,0.6-0.6h7.6c0.2,0,0.4,0,0.6-0.1C47.7,45.3,47.7,49.7,47.7,49.7
		z M47.1,58.3h-8.2c0-0.2,0.1-0.4,0.1-0.6V54h8.7v3.8C47.7,58.1,47.4,58.3,47.1,58.3z M47.1,36.7c0.3,0,0.6,0.2,0.6,0.6v3.2
		c0,0.3-0.2,0.6-0.6,0.6h-7.6c-2.7,0-4.9,2.2-4.9,4.9v11.9c0,0.3-0.2,0.6-0.6,0.6h-3.2c-0.3,0-0.6-0.2-0.6-0.6V37.2
		c0-0.3,0.2-0.6,0.6-0.6H47.1z M17.9,36.7h8.2c0,0.2-0.1,0.4-0.1,0.6V41h-8.7v-3.8C17.3,36.9,17.6,36.7,17.9,36.7z"/>
</g>
</svg>
