<?xml version="1.0" encoding="utf-8"?>
<!-- Generator: Adobe Illustrator 16.0.0, SVG Export Plug-In . SVG Version: 6.00 Build 0)  -->
<!DOCTYPE svg PUBLIC "-//W3C//DTD SVG 1.1//EN" "http://www.w3.org/Graphics/SVG/1.1/DTD/svg11.dtd">
<svg version="1.1" id="Layer_1" xmlns="http://www.w3.org/2000/svg" xmlns:xlink="http://www.w3.org/1999/xlink" x="0px" y="0px"
	 width="124px" height="104px" viewBox="0 0 82 93" enable-background="new 0 0 82 93" xml:space="preserve">
<g>
	<g>
		<g>
			<path fill="#FACC14" d="M40.677,17.31c-12.674,0.008-22.95,10.285-22.958,22.958c0.11,8.275,4.138,16.009,10.851,20.847v10.445
				h24.048V61.115c6.721-4.838,10.739-12.572,10.856-20.847C63.467,27.662,53.293,17.411,40.677,17.31z M50.26,58.887v0.051
				c-0.455,0.297-0.732,0.812-0.732,1.359v8.268H31.845v-8.36c0-0.548-0.279-1.063-0.735-1.367
				c-6.231-4.163-10.014-11.121-10.124-18.61c0.312-10.884,9.389-19.446,20.265-19.134c10.437,0.296,18.83,8.689,19.133,19.134
				C60.293,47.732,56.502,54.715,50.26,58.887z"/>
		</g>
		<path fill="none" d="M28.55,75.878c0,0,0.483-1.511,1.691-1.632h20.956c0,0,1.449,0.242,1.752,1.632v8.938
			c0,0,0.543,2.476-2.809,2.113c0,0,1.116,2.536-3.654,2.174c0,0-4.832,8.345-11.293,0.035c0,0-4.137,0.702-3.85-2.209
			c0,0-2.793,0.482-2.793-2.113V75.878z"/>
		<g>
			<path d="M49.764,77.389v6.606h-2.436v2.086h-2.869c0,0-1.546,3.594-3.696,3.594c-1.075,0-2.302-0.898-3.562-3.594h-2.695v-2.08
				l-2.782-0.006v-6.606H49.764 M52.764,74.389h-3h-18.04h-3v3v6.606v2.994l2.782,0.006v2.086h3h0.909
				c1.49,2.387,3.284,3.594,5.349,3.594c2.612,0,4.431-1.993,5.472-3.594h1.093h3v-2.086h2.436v-3v-6.606V74.389L52.764,74.389z"/>
		</g>
	</g>
	<g>
		<g>
			<path fill="#FACC14" d="M13.342,38.563H1.627C0.729,38.563,0,39.291,0,40.189s0.729,1.627,1.627,1.627h11.715
				c0.899,0,1.627-0.729,1.627-1.627l0,0C14.969,39.291,14.241,38.563,13.342,38.563z"/>
		</g>
	</g>
	<g>
		<g>
			<path fill="#FACC14" d="M79.729,38.563H68.012c-0.898,0-1.627,0.729-1.627,1.627s0.729,1.627,1.627,1.627h11.717
				c0.898,0,1.627-0.729,1.627-1.627S80.627,38.563,79.729,38.563z"/>
		</g>
	</g>
	<g>
		<g>
			<path fill="#FACC14" d="M22.664,58.396c-0.585-0.684-1.612-0.763-2.294-0.179c-0.063,0.056-0.123,0.114-0.177,0.179v-0.032
				l-8.315,8.347c-0.683,0.585-0.762,1.611-0.178,2.294c0.585,0.683,1.612,0.763,2.294,0.179c0.063-0.056,0.124-0.115,0.177-0.179
				l8.315-8.313C23.169,60.105,23.248,59.08,22.664,58.396z"/>
		</g>
	</g>
	<g>
		<g>
			<path fill="#FACC14" d="M69.299,11.39c-0.609-0.522-1.506-0.522-2.115,0l-8.313,8.314c-0.64,0.632-0.644,1.663-0.011,2.301
				c0.308,0.31,0.728,0.484,1.164,0.481l-0.016-0.016c0.432,0.002,0.848-0.167,1.154-0.472l8.314-8.314
				C70.061,13.001,69.982,11.974,69.299,11.39z"/>
		</g>
	</g>
	<g>
		<g>
			<path fill="#FACC14" d="M69.801,67.038c-0.092-0.123-0.201-0.233-0.324-0.327l-8.313-8.347c-0.584-0.683-1.611-0.763-2.295-0.179
				c-0.683,0.586-0.763,1.612-0.179,2.295c0.058,0.063,0.115,0.123,0.179,0.179l8.315,8.313c0.533,0.723,1.553,0.875,2.275,0.342
				C70.182,68.78,70.334,67.761,69.801,67.038z"/>
		</g>
	</g>
	<g>
		<g>
			<path fill="#FACC14" d="M22.486,19.704l-8.315-8.314c-0.682-0.585-1.709-0.505-2.294,0.178c-0.521,0.609-0.521,1.507,0,2.117
				l8.315,8.313c0.682,0.585,1.709,0.505,2.294-0.177C23.008,21.211,23.008,20.313,22.486,19.704z"/>
		</g>
	</g>
	<g>
		<g>
			<path fill="#FACC14" d="M40.677,0c-0.898,0-1.627,0.729-1.627,1.627v11.764c-0.027,0.898,0.68,1.648,1.578,1.675
				c0.016,0,0.032,0.001,0.049,0.001c0.899,0,1.628-0.729,1.628-1.627V1.627C42.305,0.729,41.576,0,40.677,0z"/>
		</g>
	</g>
	<path fill="#010101" d="M40.071,49.568c0.155,0.156,0.368,0.244,0.589,0.244c0.221,0,0.432-0.088,0.588-0.244l10.594-10.593
		c0.326-0.325,0.326-0.853,0-1.177c-0.324-0.325-0.852-0.325-1.178,0L40.66,47.805L30.654,37.798c-0.325-0.325-0.852-0.325-1.177,0
		c-0.325,0.325-0.325,0.852,0,1.177L40.071,49.568z"/>
	<path fill="#010101" d="M40.66,66.604c0.459,0,0.833-0.295,0.833-0.658V48.443c0-0.363-0.373-0.658-0.833-0.658
		s-0.832,0.295-0.832,0.658v17.502C39.827,66.311,40.199,66.604,40.66,66.604z"/>
</g>
</svg>
